<svg xmlns="http://www.w3.org/2000/svg" xmlns:xlink="http://www.w3.org/1999/xlink" width="610" zoomAndPan="magnify" viewBox="0 0 457.5 232.499993" height="310" preserveAspectRatio="xMidYMid meet" version="1.0"><defs><g><g id="id1"/><g id="id2"/></g><clipPath id="id3"><path d="M 182.066406 88.738281 L 275.714844 88.738281 L 275.714844 181.640625 L 182.066406 181.640625 Z M 182.066406 88.738281 " clip-rule="nonzero"/></clipPath><clipPath id="id4"><path d="M 224 88.738281 L 275.714844 88.738281 L 275.714844 157 L 224 157 Z M 224 88.738281 " clip-rule="nonzero"/></clipPath></defs><g clip-path="url(#id3)"><path fill="rgb(50.19989%, 79.998779%, 15.689087%)" d="M 269.0625 89.472656 C 266.878906 89.886719 264.703125 90.421875 262.578125 91.101562 C 260.433594 91.75 258.347656 92.566406 256.28125 93.449219 C 254.226562 94.351562 252.199219 95.332031 250.226562 96.425781 C 242.34375 100.789062 235.28125 106.570312 229.195312 113.128906 C 223.101562 119.699219 217.949219 127.039062 213.703125 134.800781 C 212.652344 136.75 211.636719 138.714844 210.695312 140.71875 C 209.742188 142.714844 208.875 144.746094 208.039062 146.800781 L 208.027344 146.832031 C 206.054688 145.316406 204.039062 143.914062 201.964844 142.613281 L 199.628906 141.15625 L 197.234375 139.792969 C 195.652344 138.882812 194 138.070312 192.367188 137.253906 C 189.050781 135.691406 185.683594 134.234375 182.089844 133.183594 C 184.105469 136.320312 186.210938 139.226562 188.269531 142.140625 L 194.417969 150.644531 L 197.355469 154.820312 C 198.316406 156.199219 199.253906 157.574219 200.136719 158.941406 C 200.59375 159.617188 201.011719 160.304688 201.441406 160.976562 C 201.84375 161.652344 202.269531 162.316406 202.644531 162.984375 C 203.03125 163.652344 203.394531 164.308594 203.734375 164.953125 C 204.078125 165.605469 204.367188 166.242188 204.667969 166.851562 L 211.835938 181.636719 L 220.121094 165.035156 L 221.332031 162.605469 L 222.65625 160.011719 C 223.550781 158.277344 224.46875 156.546875 225.398438 154.820312 C 226.328125 153.09375 227.285156 151.386719 228.234375 149.671875 C 229.203125 147.964844 230.160156 146.257812 231.15625 144.578125 C 235.09375 137.816406 239.257812 131.246094 243.699219 124.875 C 248.140625 118.503906 252.871094 112.335938 258.109375 106.363281 C 259.429688 104.886719 260.738281 103.359375 262.136719 101.914062 L 264.230469 99.707031 L 266.398438 97.523438 C 267.855469 96.066406 269.363281 94.625 270.910156 93.167969 L 275.691406 88.738281 C 273.464844 88.8125 271.242188 89.050781 269.0625 89.472656 " fill-opacity="1" fill-rule="nonzero"/></g><path fill="rgb(65.098572%, 48.239136%, 27.839661%)" d="M 224.347656 156.789062 L 224.347656 156.785156 C 224.644531 156.226562 224.941406 155.667969 225.242188 155.109375 C 224.941406 155.671875 224.644531 156.230469 224.347656 156.789062 " fill-opacity="1" fill-rule="nonzero"/><g clip-path="url(#id4)"><path fill="rgb(25.099182%, 37.649536%, 23.139954%)" d="M 224.347656 156.785156 L 224.347656 118.773438 C 225.894531 116.839844 227.503906 114.953125 229.195312 113.128906 C 235.28125 106.570312 242.34375 100.789062 250.226562 96.425781 C 252.199219 95.332031 254.226562 94.351562 256.28125 93.449219 C 258.347656 92.566406 260.433594 91.75 262.578125 91.101562 C 264.703125 90.421875 266.878906 89.886719 269.0625 89.472656 C 271.242188 89.050781 273.464844 88.8125 275.691406 88.738281 L 270.910156 93.167969 C 269.363281 94.625 267.855469 96.066406 266.398438 97.523438 L 264.230469 99.707031 L 262.136719 101.914062 C 260.738281 103.359375 259.429688 104.886719 258.109375 106.363281 C 252.871094 112.335938 248.140625 118.503906 243.699219 124.875 C 239.257812 131.246094 235.09375 137.816406 231.15625 144.578125 C 230.160156 146.257812 229.203125 147.964844 228.234375 149.671875 C 227.285156 151.386719 226.328125 153.09375 225.398438 154.820312 C 225.347656 154.917969 225.292969 155.015625 225.242188 155.109375 C 224.941406 155.667969 224.644531 156.226562 224.347656 156.785156 " fill-opacity="1" fill-rule="nonzero"/></g><g fill="rgb(100%, 100%, 100%)" fill-opacity="1"><g transform="translate(193.105346, 66.586826)"><g><path d="M 6.5 -4.9375 C 6.019531 -4.613281 5.6875 -4.34375 5.5 -4.125 C 5.3125 -3.914062 5.207031 -3.691406 5.1875 -3.453125 L 10.5 -3.453125 L 10.5 0 L 0.828125 0 L 0.828125 -1.5625 C 0.828125 -2.5625 0.882812 -3.375 1 -4 C 1.113281 -4.625 1.375 -5.222656 1.78125 -5.796875 C 2.195312 -6.367188 2.835938 -6.925781 3.703125 -7.46875 L 4.984375 -8.28125 C 5.421875 -8.5625 5.757812 -8.835938 6 -9.109375 C 6.238281 -9.378906 6.359375 -9.691406 6.359375 -10.046875 C 6.359375 -10.367188 6.242188 -10.613281 6.015625 -10.78125 C 5.796875 -10.957031 5.53125 -11.046875 5.21875 -11.046875 C 4.550781 -11.046875 3.882812 -10.679688 3.21875 -9.953125 L 0.75 -12.296875 C 1.40625 -13.003906 2.1875 -13.554688 3.09375 -13.953125 C 4 -14.359375 4.960938 -14.5625 5.984375 -14.5625 C 6.847656 -14.5625 7.628906 -14.394531 8.328125 -14.0625 C 9.035156 -13.726562 9.59375 -13.242188 10 -12.609375 C 10.40625 -11.972656 10.609375 -11.21875 10.609375 -10.34375 C 10.609375 -9.289062 10.304688 -8.382812 9.703125 -7.625 C 9.097656 -6.863281 8.335938 -6.175781 7.421875 -5.5625 Z M 6.5 -4.9375 "/></g></g></g><g fill="rgb(100%, 100%, 100%)" fill-opacity="1"><g transform="translate(204.65503, 66.586826)"><g><path d="M 5.6875 -14.28125 C 7.113281 -14.28125 8.347656 -13.972656 9.390625 -13.359375 C 10.429688 -12.742188 11.222656 -11.894531 11.765625 -10.8125 C 12.304688 -9.738281 12.578125 -8.515625 12.578125 -7.140625 C 12.578125 -5.765625 12.304688 -4.535156 11.765625 -3.453125 C 11.222656 -2.378906 10.429688 -1.535156 9.390625 -0.921875 C 8.347656 -0.304688 7.113281 0 5.6875 0 L 0.9375 0 L 0.9375 -14.28125 Z M 5.578125 -3.453125 C 6.441406 -3.453125 7.078125 -3.742188 7.484375 -4.328125 C 7.898438 -4.921875 8.109375 -5.863281 8.109375 -7.15625 C 8.109375 -8.445312 7.898438 -9.378906 7.484375 -9.953125 C 7.078125 -10.523438 6.441406 -10.8125 5.578125 -10.8125 L 5.234375 -10.8125 L 5.234375 -3.453125 Z M 5.578125 -3.453125 "/></g></g></g><g fill="rgb(100%, 100%, 100%)" fill-opacity="1"><g transform="translate(217.763453, 66.586826)"><g><path d="M 5.6875 0.28125 C 3.945312 0.28125 2.660156 -0.191406 1.828125 -1.140625 C 1.003906 -2.097656 0.59375 -3.347656 0.59375 -4.890625 C 0.59375 -6.421875 1.003906 -7.660156 1.828125 -8.609375 C 2.660156 -9.566406 3.945312 -10.046875 5.6875 -10.046875 C 7.4375 -10.046875 8.722656 -9.566406 9.546875 -8.609375 C 10.378906 -7.660156 10.796875 -6.421875 10.796875 -4.890625 C 10.796875 -3.347656 10.378906 -2.097656 9.546875 -1.140625 C 8.722656 -0.191406 7.4375 0.28125 5.6875 0.28125 Z M 5.6875 -2.90625 C 6.363281 -2.90625 6.703125 -3.566406 6.703125 -4.890625 C 6.703125 -6.203125 6.363281 -6.859375 5.6875 -6.859375 C 5.375 -6.859375 5.128906 -6.691406 4.953125 -6.359375 C 4.773438 -6.035156 4.6875 -5.546875 4.6875 -4.890625 C 4.6875 -4.222656 4.773438 -3.722656 4.953125 -3.390625 C 5.128906 -3.066406 5.375 -2.90625 5.6875 -2.90625 Z M 5.6875 -2.90625 "/></g></g></g><g fill="rgb(100%, 100%, 100%)" fill-opacity="1"><g transform="translate(229.162898, 66.586826)"><g><path d="M 5.234375 -3.453125 L 8.609375 -3.453125 L 8.609375 0 L 0.9375 0 L 0.9375 -14.28125 L 5.234375 -14.28125 Z M 5.234375 -3.453125 "/></g></g></g><g fill="rgb(100%, 100%, 100%)" fill-opacity="1"><g transform="translate(238.139727, 66.586826)"><g><path d="M 2.953125 -11.09375 C 2.398438 -11.09375 1.925781 -11.285156 1.53125 -11.671875 C 1.144531 -12.066406 0.953125 -12.539062 0.953125 -13.09375 C 0.953125 -13.644531 1.144531 -14.113281 1.53125 -14.5 C 1.925781 -14.882812 2.398438 -15.078125 2.953125 -15.078125 C 3.503906 -15.078125 3.972656 -14.882812 4.359375 -14.5 C 4.742188 -14.113281 4.9375 -13.644531 4.9375 -13.09375 C 4.9375 -12.539062 4.742188 -12.066406 4.359375 -11.671875 C 3.972656 -11.285156 3.503906 -11.09375 2.953125 -11.09375 Z M 0.90625 -9.765625 L 5.03125 -9.765625 L 5.03125 0 L 0.90625 0 Z M 0.90625 -9.765625 "/></g></g></g><g fill="rgb(100%, 100%, 100%)" fill-opacity="1"><g transform="translate(244.055418, 66.586826)"><g><path d="M 4.265625 0.28125 C 3.460938 0.28125 2.707031 0.15625 2 -0.09375 C 1.300781 -0.34375 0.695312 -0.691406 0.1875 -1.140625 L 1.984375 -3.125 C 2.773438 -2.601562 3.476562 -2.34375 4.09375 -2.34375 C 4.601562 -2.34375 4.859375 -2.5 4.859375 -2.8125 C 4.859375 -2.914062 4.8125 -3 4.71875 -3.0625 C 4.625 -3.125 4.445312 -3.207031 4.1875 -3.3125 L 3.53125 -3.546875 C 2.738281 -3.847656 2.023438 -4.25 1.390625 -4.75 C 0.753906 -5.25 0.4375 -5.984375 0.4375 -6.953125 C 0.4375 -7.890625 0.785156 -8.640625 1.484375 -9.203125 C 2.191406 -9.765625 3.160156 -10.046875 4.390625 -10.046875 C 5.179688 -10.046875 5.925781 -9.921875 6.625 -9.671875 C 7.332031 -9.429688 7.921875 -9.128906 8.390625 -8.765625 L 6.765625 -6.71875 C 6.484375 -6.9375 6.175781 -7.109375 5.84375 -7.234375 C 5.519531 -7.367188 5.179688 -7.4375 4.828125 -7.4375 C 4.335938 -7.4375 4.09375 -7.300781 4.09375 -7.03125 C 4.09375 -6.84375 4.285156 -6.679688 4.671875 -6.546875 L 5.46875 -6.265625 C 6.03125 -6.066406 6.519531 -5.859375 6.9375 -5.640625 C 7.351562 -5.421875 7.722656 -5.097656 8.046875 -4.671875 C 8.378906 -4.242188 8.546875 -3.703125 8.546875 -3.046875 C 8.546875 -2.085938 8.191406 -1.289062 7.484375 -0.65625 C 6.773438 -0.03125 5.703125 0.28125 4.265625 0.28125 Z M 4.265625 0.28125 "/></g></g></g><g fill="rgb(100%, 100%, 100%)" fill-opacity="1"><g transform="translate(253.069812, 66.586826)"><g><path d="M 7.5625 0.0625 C 6.6875 0.207031 5.828125 0.28125 4.984375 0.28125 C 3.597656 0.28125 2.617188 -0.0390625 2.046875 -0.6875 C 1.484375 -1.34375 1.203125 -2.414062 1.203125 -3.90625 L 1.203125 -6.65625 L 0 -6.65625 L 0.1875 -9.765625 L 1.203125 -9.765625 L 1.203125 -12.203125 L 5.296875 -12.203125 L 5.296875 -9.765625 L 7.375 -9.765625 L 7.375 -6.65625 L 5.296875 -6.65625 L 5.296875 -4.3125 C 5.296875 -3.800781 5.367188 -3.429688 5.515625 -3.203125 C 5.671875 -2.984375 5.960938 -2.875 6.390625 -2.875 C 6.671875 -2.875 6.988281 -2.910156 7.34375 -2.984375 Z M 7.5625 0.0625 "/></g></g></g><g fill="rgb(0%, 0%, 0%)" fill-opacity="1"><g transform="translate(261.105003, 66.586826)"><g/></g></g><g fill="rgb(100%, 100%, 100%)" fill-opacity="1"><g transform="translate(148.952777, 85.081174)"><g><path d="M 5.671875 -5.375 L 5.671875 -0.5625 C 5.671875 1.25 4.851562 2.15625 3.21875 2.15625 C 2.6875 2.15625 2.238281 2.054688 1.875 1.859375 C 1.507812 1.671875 1.222656 1.445312 1.015625 1.1875 L 1.140625 1.046875 C 1.328125 1.296875 1.59375 1.507812 1.9375 1.6875 C 2.289062 1.875 2.726562 1.96875 3.25 1.96875 C 4.738281 1.96875 5.484375 1.125 5.484375 -0.5625 L 5.484375 -1.671875 C 5.316406 -1.117188 5.019531 -0.6875 4.59375 -0.375 C 4.175781 -0.0625 3.679688 0.09375 3.109375 0.09375 C 2.617188 0.09375 2.175781 -0.0195312 1.78125 -0.25 C 1.382812 -0.488281 1.070312 -0.816406 0.84375 -1.234375 C 0.625 -1.648438 0.515625 -2.132812 0.515625 -2.6875 C 0.515625 -3.238281 0.625 -3.722656 0.84375 -4.140625 C 1.070312 -4.554688 1.382812 -4.878906 1.78125 -5.109375 C 2.175781 -5.347656 2.617188 -5.46875 3.109375 -5.46875 C 3.679688 -5.46875 4.179688 -5.304688 4.609375 -4.984375 C 5.035156 -4.671875 5.328125 -4.238281 5.484375 -3.6875 L 5.5 -5.375 Z M 3.109375 -0.09375 C 3.554688 -0.09375 3.957031 -0.195312 4.3125 -0.40625 C 4.675781 -0.625 4.957031 -0.925781 5.15625 -1.3125 C 5.363281 -1.707031 5.46875 -2.164062 5.46875 -2.6875 C 5.46875 -3.207031 5.363281 -3.660156 5.15625 -4.046875 C 4.957031 -4.441406 4.675781 -4.742188 4.3125 -4.953125 C 3.957031 -5.171875 3.554688 -5.28125 3.109375 -5.28125 C 2.648438 -5.28125 2.238281 -5.171875 1.875 -4.953125 C 1.507812 -4.742188 1.222656 -4.441406 1.015625 -4.046875 C 0.804688 -3.660156 0.703125 -3.207031 0.703125 -2.6875 C 0.703125 -2.164062 0.804688 -1.707031 1.015625 -1.3125 C 1.222656 -0.925781 1.507812 -0.625 1.875 -0.40625 C 2.238281 -0.195312 2.648438 -0.09375 3.109375 -0.09375 Z M 3.109375 -0.09375 "/></g></g></g><g fill="rgb(100%, 100%, 100%)" fill-opacity="1"><g transform="translate(155.380789, 85.081174)"><g><path d="M 0.875 -6.609375 C 0.78125 -6.609375 0.703125 -6.632812 0.640625 -6.6875 C 0.585938 -6.75 0.5625 -6.820312 0.5625 -6.90625 C 0.5625 -6.976562 0.585938 -7.039062 0.640625 -7.09375 C 0.703125 -7.15625 0.78125 -7.1875 0.875 -7.1875 C 0.945312 -7.1875 1.007812 -7.15625 1.0625 -7.09375 C 1.125 -7.039062 1.15625 -6.976562 1.15625 -6.90625 C 1.15625 -6.820312 1.125 -6.75 1.0625 -6.6875 C 1.007812 -6.632812 0.945312 -6.609375 0.875 -6.609375 Z M 0.78125 -5.375 L 0.96875 -5.375 L 0.96875 0 L 0.78125 0 Z M 0.78125 -5.375 "/></g></g></g><g fill="rgb(100%, 100%, 100%)" fill-opacity="1"><g transform="translate(157.111408, 85.081174)"><g><path d="M 4.703125 -5.375 L 4.90625 -5.375 L 2.59375 0 L 2.359375 0 L 0.046875 -5.375 L 0.265625 -5.375 L 2.484375 -0.1875 Z M 4.703125 -5.375 "/></g></g></g><g fill="rgb(100%, 100%, 100%)" fill-opacity="1"><g transform="translate(162.077532, 85.081174)"><g><path d="M 5.5 -2.671875 L 0.703125 -2.671875 C 0.703125 -2.171875 0.800781 -1.722656 1 -1.328125 C 1.207031 -0.941406 1.488281 -0.640625 1.84375 -0.421875 C 2.207031 -0.203125 2.625 -0.09375 3.09375 -0.09375 C 3.53125 -0.09375 3.910156 -0.175781 4.234375 -0.34375 C 4.566406 -0.519531 4.832031 -0.765625 5.03125 -1.078125 L 5.1875 -0.96875 C 4.96875 -0.625 4.679688 -0.359375 4.328125 -0.171875 C 3.972656 0.00390625 3.5625 0.09375 3.09375 0.09375 C 2.582031 0.09375 2.128906 -0.0195312 1.734375 -0.25 C 1.347656 -0.488281 1.046875 -0.816406 0.828125 -1.234375 C 0.617188 -1.660156 0.515625 -2.144531 0.515625 -2.6875 C 0.515625 -3.226562 0.617188 -3.707031 0.828125 -4.125 C 1.046875 -4.550781 1.34375 -4.878906 1.71875 -5.109375 C 2.101562 -5.347656 2.546875 -5.46875 3.046875 -5.46875 C 3.492188 -5.46875 3.90625 -5.363281 4.28125 -5.15625 C 4.65625 -4.945312 4.953125 -4.640625 5.171875 -4.234375 C 5.390625 -3.835938 5.5 -3.359375 5.5 -2.796875 Z M 3.03125 -5.28125 C 2.363281 -5.28125 1.816406 -5.054688 1.390625 -4.609375 C 0.972656 -4.171875 0.742188 -3.585938 0.703125 -2.859375 L 5.3125 -2.859375 C 5.289062 -3.378906 5.175781 -3.820312 4.96875 -4.1875 C 4.769531 -4.550781 4.5 -4.820312 4.15625 -5 C 3.8125 -5.1875 3.4375 -5.28125 3.03125 -5.28125 Z M 3.03125 -5.28125 "/></g></g></g><g fill="rgb(100%, 100%, 100%)" fill-opacity="1"><g transform="translate(168.097077, 85.081174)"><g><path d="M 2.421875 0.09375 C 1.578125 0.09375 0.914062 -0.238281 0.4375 -0.90625 L 0.578125 -1.015625 C 0.796875 -0.710938 1.054688 -0.484375 1.359375 -0.328125 C 1.660156 -0.171875 2.007812 -0.09375 2.40625 -0.09375 C 2.90625 -0.09375 3.300781 -0.207031 3.59375 -0.4375 C 3.894531 -0.664062 4.046875 -0.972656 4.046875 -1.359375 C 4.046875 -1.617188 3.976562 -1.828125 3.84375 -1.984375 C 3.707031 -2.148438 3.535156 -2.28125 3.328125 -2.375 C 3.128906 -2.46875 2.84375 -2.570312 2.46875 -2.6875 L 2.046875 -2.8125 C 1.691406 -2.925781 1.410156 -3.023438 1.203125 -3.109375 C 0.992188 -3.203125 0.820312 -3.332031 0.6875 -3.5 C 0.5625 -3.664062 0.5 -3.882812 0.5 -4.15625 C 0.5 -4.5625 0.65625 -4.878906 0.96875 -5.109375 C 1.289062 -5.347656 1.707031 -5.46875 2.21875 -5.46875 C 2.9375 -5.46875 3.539062 -5.234375 4.03125 -4.765625 L 3.90625 -4.625 C 3.445312 -5.0625 2.882812 -5.28125 2.21875 -5.28125 C 1.757812 -5.28125 1.390625 -5.175781 1.109375 -4.96875 C 0.828125 -4.769531 0.6875 -4.5 0.6875 -4.15625 C 0.6875 -3.9375 0.742188 -3.753906 0.859375 -3.609375 C 0.984375 -3.460938 1.140625 -3.347656 1.328125 -3.265625 C 1.515625 -3.179688 1.765625 -3.09375 2.078125 -3 L 2.546875 -2.859375 C 2.929688 -2.742188 3.238281 -2.628906 3.46875 -2.515625 C 3.695312 -2.410156 3.878906 -2.265625 4.015625 -2.078125 C 4.160156 -1.898438 4.234375 -1.664062 4.234375 -1.375 C 4.234375 -0.90625 4.0625 -0.539062 3.71875 -0.28125 C 3.382812 -0.03125 2.953125 0.09375 2.421875 0.09375 Z M 2.421875 0.09375 "/></g></g></g><g fill="rgb(100%, 100%, 100%)" fill-opacity="1"><g transform="translate(172.762223, 85.081174)"><g/></g></g><g fill="rgb(100%, 100%, 100%)" fill-opacity="1"><g transform="translate(175.234537, 85.081174)"><g><path d="M 4.6875 -5.375 L 4.890625 -5.375 L 1.703125 2.0625 L 1.5 2.0625 L 2.375 0.03125 L 0.046875 -5.375 L 0.265625 -5.375 L 2.46875 -0.203125 Z M 4.6875 -5.375 "/></g></g></g><g fill="rgb(100%, 100%, 100%)" fill-opacity="1"><g transform="translate(180.179161, 85.081174)"><g><path d="M 3.109375 0.09375 C 2.617188 0.09375 2.175781 -0.0195312 1.78125 -0.25 C 1.382812 -0.488281 1.070312 -0.816406 0.84375 -1.234375 C 0.625 -1.648438 0.515625 -2.132812 0.515625 -2.6875 C 0.515625 -3.238281 0.625 -3.722656 0.84375 -4.140625 C 1.070312 -4.554688 1.382812 -4.878906 1.78125 -5.109375 C 2.175781 -5.347656 2.617188 -5.46875 3.109375 -5.46875 C 3.597656 -5.46875 4.035156 -5.347656 4.421875 -5.109375 C 4.816406 -4.878906 5.128906 -4.554688 5.359375 -4.140625 C 5.585938 -3.722656 5.703125 -3.238281 5.703125 -2.6875 C 5.703125 -2.132812 5.585938 -1.648438 5.359375 -1.234375 C 5.128906 -0.816406 4.816406 -0.488281 4.421875 -0.25 C 4.035156 -0.0195312 3.597656 0.09375 3.109375 0.09375 Z M 3.109375 -0.09375 C 3.554688 -0.09375 3.960938 -0.195312 4.328125 -0.40625 C 4.691406 -0.625 4.976562 -0.925781 5.1875 -1.3125 C 5.394531 -1.707031 5.5 -2.164062 5.5 -2.6875 C 5.5 -3.207031 5.394531 -3.660156 5.1875 -4.046875 C 4.976562 -4.441406 4.691406 -4.742188 4.328125 -4.953125 C 3.960938 -5.171875 3.554688 -5.28125 3.109375 -5.28125 C 2.648438 -5.28125 2.238281 -5.171875 1.875 -4.953125 C 1.507812 -4.742188 1.222656 -4.441406 1.015625 -4.046875 C 0.804688 -3.660156 0.703125 -3.207031 0.703125 -2.6875 C 0.703125 -2.164062 0.804688 -1.707031 1.015625 -1.3125 C 1.222656 -0.925781 1.507812 -0.625 1.875 -0.40625 C 2.238281 -0.195312 2.648438 -0.09375 3.109375 -0.09375 Z M 3.109375 -0.09375 "/></g></g></g><g fill="rgb(100%, 100%, 100%)" fill-opacity="1"><g transform="translate(186.392191, 85.081174)"><g><path d="M 2.875 0.09375 C 2.257812 0.09375 1.742188 -0.0703125 1.328125 -0.40625 C 0.910156 -0.738281 0.703125 -1.265625 0.703125 -1.984375 L 0.703125 -5.375 L 0.890625 -5.375 L 0.890625 -1.984375 C 0.890625 -1.367188 1.066406 -0.898438 1.421875 -0.578125 C 1.785156 -0.253906 2.269531 -0.09375 2.875 -0.09375 C 3.488281 -0.09375 3.972656 -0.253906 4.328125 -0.578125 C 4.691406 -0.898438 4.875 -1.367188 4.875 -1.984375 L 4.875 -5.375 L 5.0625 -5.375 L 5.0625 -1.984375 C 5.0625 -1.265625 4.851562 -0.738281 4.4375 -0.40625 C 4.019531 -0.0703125 3.5 0.09375 2.875 0.09375 Z M 2.875 0.09375 "/></g></g></g><g fill="rgb(100%, 100%, 100%)" fill-opacity="1"><g transform="translate(192.153755, 85.081174)"><g/></g></g><g fill="rgb(100%, 100%, 100%)" fill-opacity="1"><g transform="translate(194.626069, 85.081174)"><g><path d="M 2.21875 -8.078125 C 1.832031 -8.078125 1.539062 -7.957031 1.34375 -7.71875 C 1.15625 -7.476562 1.0625 -7.109375 1.0625 -6.609375 L 1.0625 -5.375 L 2.84375 -5.375 L 2.84375 -5.1875 L 1.0625 -5.1875 L 1.0625 0 L 0.875 0 L 0.875 -5.1875 L 0.21875 -5.1875 L 0.21875 -5.375 L 0.875 -5.375 L 0.875 -6.625 C 0.875 -7.707031 1.320312 -8.25 2.21875 -8.25 C 2.5625 -8.25 2.894531 -8.171875 3.21875 -8.015625 L 3.203125 -7.828125 C 2.828125 -7.992188 2.5 -8.078125 2.21875 -8.078125 Z M 2.21875 -8.078125 "/></g></g></g><g fill="rgb(100%, 100%, 100%)" fill-opacity="1"><g transform="translate(197.582095, 85.081174)"><g><path d="M 3.109375 0.09375 C 2.617188 0.09375 2.175781 -0.0195312 1.78125 -0.25 C 1.382812 -0.488281 1.070312 -0.816406 0.84375 -1.234375 C 0.625 -1.648438 0.515625 -2.132812 0.515625 -2.6875 C 0.515625 -3.238281 0.625 -3.722656 0.84375 -4.140625 C 1.070312 -4.554688 1.382812 -4.878906 1.78125 -5.109375 C 2.175781 -5.347656 2.617188 -5.46875 3.109375 -5.46875 C 3.597656 -5.46875 4.035156 -5.347656 4.421875 -5.109375 C 4.816406 -4.878906 5.128906 -4.554688 5.359375 -4.140625 C 5.585938 -3.722656 5.703125 -3.238281 5.703125 -2.6875 C 5.703125 -2.132812 5.585938 -1.648438 5.359375 -1.234375 C 5.128906 -0.816406 4.816406 -0.488281 4.421875 -0.25 C 4.035156 -0.0195312 3.597656 0.09375 3.109375 0.09375 Z M 3.109375 -0.09375 C 3.554688 -0.09375 3.960938 -0.195312 4.328125 -0.40625 C 4.691406 -0.625 4.976562 -0.925781 5.1875 -1.3125 C 5.394531 -1.707031 5.5 -2.164062 5.5 -2.6875 C 5.5 -3.207031 5.394531 -3.660156 5.1875 -4.046875 C 4.976562 -4.441406 4.691406 -4.742188 4.328125 -4.953125 C 3.960938 -5.171875 3.554688 -5.28125 3.109375 -5.28125 C 2.648438 -5.28125 2.238281 -5.171875 1.875 -4.953125 C 1.507812 -4.742188 1.222656 -4.441406 1.015625 -4.046875 C 0.804688 -3.660156 0.703125 -3.207031 0.703125 -2.6875 C 0.703125 -2.164062 0.804688 -1.707031 1.015625 -1.3125 C 1.222656 -0.925781 1.507812 -0.625 1.875 -0.40625 C 2.238281 -0.195312 2.648438 -0.09375 3.109375 -0.09375 Z M 3.109375 -0.09375 "/></g></g></g><g fill="rgb(100%, 100%, 100%)" fill-opacity="1"><g transform="translate(203.795125, 85.081174)"><g><path d="M 3.109375 0.09375 C 2.617188 0.09375 2.175781 -0.0195312 1.78125 -0.25 C 1.382812 -0.488281 1.070312 -0.816406 0.84375 -1.234375 C 0.625 -1.648438 0.515625 -2.132812 0.515625 -2.6875 C 0.515625 -3.238281 0.625 -3.722656 0.84375 -4.140625 C 1.070312 -4.554688 1.382812 -4.878906 1.78125 -5.109375 C 2.175781 -5.347656 2.617188 -5.46875 3.109375 -5.46875 C 3.472656 -5.46875 3.8125 -5.398438 4.125 -5.265625 C 4.4375 -5.128906 4.707031 -4.941406 4.9375 -4.703125 L 4.8125 -4.5625 C 4.601562 -4.789062 4.351562 -4.96875 4.0625 -5.09375 C 3.769531 -5.21875 3.453125 -5.28125 3.109375 -5.28125 C 2.648438 -5.28125 2.238281 -5.171875 1.875 -4.953125 C 1.507812 -4.742188 1.222656 -4.441406 1.015625 -4.046875 C 0.804688 -3.660156 0.703125 -3.207031 0.703125 -2.6875 C 0.703125 -2.164062 0.804688 -1.707031 1.015625 -1.3125 C 1.222656 -0.925781 1.507812 -0.625 1.875 -0.40625 C 2.238281 -0.195312 2.648438 -0.09375 3.109375 -0.09375 C 3.503906 -0.09375 3.863281 -0.171875 4.1875 -0.328125 C 4.519531 -0.484375 4.796875 -0.710938 5.015625 -1.015625 L 5.15625 -0.90625 C 4.925781 -0.59375 4.632812 -0.347656 4.28125 -0.171875 C 3.925781 0.00390625 3.535156 0.09375 3.109375 0.09375 Z M 3.109375 0.09375 "/></g></g></g><g fill="rgb(100%, 100%, 100%)" fill-opacity="1"><g transform="translate(209.330951, 85.081174)"><g><path d="M 2.875 0.09375 C 2.257812 0.09375 1.742188 -0.0703125 1.328125 -0.40625 C 0.910156 -0.738281 0.703125 -1.265625 0.703125 -1.984375 L 0.703125 -5.375 L 0.890625 -5.375 L 0.890625 -1.984375 C 0.890625 -1.367188 1.066406 -0.898438 1.421875 -0.578125 C 1.785156 -0.253906 2.269531 -0.09375 2.875 -0.09375 C 3.488281 -0.09375 3.972656 -0.253906 4.328125 -0.578125 C 4.691406 -0.898438 4.875 -1.367188 4.875 -1.984375 L 4.875 -5.375 L 5.0625 -5.375 L 5.0625 -1.984375 C 5.0625 -1.265625 4.851562 -0.738281 4.4375 -0.40625 C 4.019531 -0.0703125 3.5 0.09375 2.875 0.09375 Z M 2.875 0.09375 "/></g></g></g><g fill="rgb(100%, 100%, 100%)" fill-opacity="1"><g transform="translate(215.092518, 85.081174)"><g><path d="M 2.421875 0.09375 C 1.578125 0.09375 0.914062 -0.238281 0.4375 -0.90625 L 0.578125 -1.015625 C 0.796875 -0.710938 1.054688 -0.484375 1.359375 -0.328125 C 1.660156 -0.171875 2.007812 -0.09375 2.40625 -0.09375 C 2.90625 -0.09375 3.300781 -0.207031 3.59375 -0.4375 C 3.894531 -0.664062 4.046875 -0.972656 4.046875 -1.359375 C 4.046875 -1.617188 3.976562 -1.828125 3.84375 -1.984375 C 3.707031 -2.148438 3.535156 -2.28125 3.328125 -2.375 C 3.128906 -2.46875 2.84375 -2.570312 2.46875 -2.6875 L 2.046875 -2.8125 C 1.691406 -2.925781 1.410156 -3.023438 1.203125 -3.109375 C 0.992188 -3.203125 0.820312 -3.332031 0.6875 -3.5 C 0.5625 -3.664062 0.5 -3.882812 0.5 -4.15625 C 0.5 -4.5625 0.65625 -4.878906 0.96875 -5.109375 C 1.289062 -5.347656 1.707031 -5.46875 2.21875 -5.46875 C 2.9375 -5.46875 3.539062 -5.234375 4.03125 -4.765625 L 3.90625 -4.625 C 3.445312 -5.0625 2.882812 -5.28125 2.21875 -5.28125 C 1.757812 -5.28125 1.390625 -5.175781 1.109375 -4.96875 C 0.828125 -4.769531 0.6875 -4.5 0.6875 -4.15625 C 0.6875 -3.9375 0.742188 -3.753906 0.859375 -3.609375 C 0.984375 -3.460938 1.140625 -3.347656 1.328125 -3.265625 C 1.515625 -3.179688 1.765625 -3.09375 2.078125 -3 L 2.546875 -2.859375 C 2.929688 -2.742188 3.238281 -2.628906 3.46875 -2.515625 C 3.695312 -2.410156 3.878906 -2.265625 4.015625 -2.078125 C 4.160156 -1.898438 4.234375 -1.664062 4.234375 -1.375 C 4.234375 -0.90625 4.0625 -0.539062 3.71875 -0.28125 C 3.382812 -0.03125 2.953125 0.09375 2.421875 0.09375 Z M 2.421875 0.09375 "/></g></g></g><g fill="rgb(100%, 100%, 100%)" fill-opacity="1"><g transform="translate(219.757661, 85.081174)"><g><path d="M 0.953125 -0.5625 C 1.046875 -0.5625 1.128906 -0.519531 1.203125 -0.4375 C 1.285156 -0.363281 1.328125 -0.257812 1.328125 -0.125 C 1.328125 0.09375 1.253906 0.3125 1.109375 0.53125 C 0.960938 0.75 0.796875 0.910156 0.609375 1.015625 L 0.53125 0.921875 C 0.695312 0.816406 0.828125 0.679688 0.921875 0.515625 C 1.023438 0.359375 1.09375 0.203125 1.125 0.046875 C 1.050781 0.078125 0.992188 0.09375 0.953125 0.09375 C 0.859375 0.09375 0.78125 0.0625 0.71875 0 C 0.65625 -0.0625 0.625 -0.132812 0.625 -0.21875 C 0.625 -0.3125 0.65625 -0.390625 0.71875 -0.453125 C 0.78125 -0.523438 0.859375 -0.5625 0.953125 -0.5625 Z M 0.953125 -0.5625 "/></g></g></g><g fill="rgb(100%, 100%, 100%)" fill-opacity="1"><g transform="translate(221.61727, 85.081174)"><g/></g></g><g fill="rgb(100%, 100%, 100%)" fill-opacity="1"><g transform="translate(224.089583, 85.081174)"><g><path d="M 2.21875 -8.078125 C 1.832031 -8.078125 1.539062 -7.957031 1.34375 -7.71875 C 1.15625 -7.476562 1.0625 -7.109375 1.0625 -6.609375 L 1.0625 -5.375 L 2.84375 -5.375 L 2.84375 -5.1875 L 1.0625 -5.1875 L 1.0625 0 L 0.875 0 L 0.875 -5.1875 L 0.21875 -5.1875 L 0.21875 -5.375 L 0.875 -5.375 L 0.875 -6.625 C 0.875 -7.707031 1.320312 -8.25 2.21875 -8.25 C 2.5625 -8.25 2.894531 -8.171875 3.21875 -8.015625 L 3.203125 -7.828125 C 2.828125 -7.992188 2.5 -8.078125 2.21875 -8.078125 Z M 2.21875 -8.078125 "/></g></g></g><g fill="rgb(100%, 100%, 100%)" fill-opacity="1"><g transform="translate(227.045609, 85.081174)"><g><path d="M 2.953125 -5.46875 C 3.097656 -5.46875 3.253906 -5.453125 3.421875 -5.421875 L 3.421875 -5.25 C 3.265625 -5.269531 3.113281 -5.28125 2.96875 -5.28125 C 2.570312 -5.28125 2.222656 -5.164062 1.921875 -4.9375 C 1.617188 -4.707031 1.378906 -4.382812 1.203125 -3.96875 C 1.035156 -3.550781 0.953125 -3.070312 0.953125 -2.53125 L 0.953125 0 L 0.75 0 L 0.75 -5.375 L 0.921875 -5.375 L 0.953125 -3.703125 C 1.109375 -4.265625 1.367188 -4.695312 1.734375 -5 C 2.097656 -5.3125 2.503906 -5.46875 2.953125 -5.46875 Z M 2.953125 -5.46875 "/></g></g></g><g fill="rgb(100%, 100%, 100%)" fill-opacity="1"><g transform="translate(230.743327, 85.081174)"><g><path d="M 3.109375 0.09375 C 2.617188 0.09375 2.175781 -0.0195312 1.78125 -0.25 C 1.382812 -0.488281 1.070312 -0.816406 0.84375 -1.234375 C 0.625 -1.648438 0.515625 -2.132812 0.515625 -2.6875 C 0.515625 -3.238281 0.625 -3.722656 0.84375 -4.140625 C 1.070312 -4.554688 1.382812 -4.878906 1.78125 -5.109375 C 2.175781 -5.347656 2.617188 -5.46875 3.109375 -5.46875 C 3.597656 -5.46875 4.035156 -5.347656 4.421875 -5.109375 C 4.816406 -4.878906 5.128906 -4.554688 5.359375 -4.140625 C 5.585938 -3.722656 5.703125 -3.238281 5.703125 -2.6875 C 5.703125 -2.132812 5.585938 -1.648438 5.359375 -1.234375 C 5.128906 -0.816406 4.816406 -0.488281 4.421875 -0.25 C 4.035156 -0.0195312 3.597656 0.09375 3.109375 0.09375 Z M 3.109375 -0.09375 C 3.554688 -0.09375 3.960938 -0.195312 4.328125 -0.40625 C 4.691406 -0.625 4.976562 -0.925781 5.1875 -1.3125 C 5.394531 -1.707031 5.5 -2.164062 5.5 -2.6875 C 5.5 -3.207031 5.394531 -3.660156 5.1875 -4.046875 C 4.976562 -4.441406 4.691406 -4.742188 4.328125 -4.953125 C 3.960938 -5.171875 3.554688 -5.28125 3.109375 -5.28125 C 2.648438 -5.28125 2.238281 -5.171875 1.875 -4.953125 C 1.507812 -4.742188 1.222656 -4.441406 1.015625 -4.046875 C 0.804688 -3.660156 0.703125 -3.207031 0.703125 -2.6875 C 0.703125 -2.164062 0.804688 -1.707031 1.015625 -1.3125 C 1.222656 -0.925781 1.507812 -0.625 1.875 -0.40625 C 2.238281 -0.195312 2.648438 -0.09375 3.109375 -0.09375 Z M 3.109375 -0.09375 "/></g></g></g><g fill="rgb(100%, 100%, 100%)" fill-opacity="1"><g transform="translate(236.956357, 85.081174)"><g><path d="M 6.765625 -5.46875 C 7.328125 -5.46875 7.796875 -5.28125 8.171875 -4.90625 C 8.546875 -4.539062 8.734375 -4 8.734375 -3.28125 L 8.734375 0 L 8.546875 0 L 8.546875 -3.28125 C 8.546875 -3.882812 8.382812 -4.367188 8.0625 -4.734375 C 7.75 -5.097656 7.316406 -5.28125 6.765625 -5.28125 C 6.171875 -5.28125 5.703125 -5.046875 5.359375 -4.578125 C 5.015625 -4.117188 4.84375 -3.503906 4.84375 -2.734375 L 4.84375 0 L 4.640625 0 L 4.640625 -3.28125 C 4.640625 -3.882812 4.484375 -4.367188 4.171875 -4.734375 C 3.859375 -5.097656 3.425781 -5.28125 2.875 -5.28125 C 2.28125 -5.28125 1.8125 -5.046875 1.46875 -4.578125 C 1.125 -4.117188 0.953125 -3.503906 0.953125 -2.734375 L 0.953125 0 L 0.75 0 L 0.75 -5.375 L 0.921875 -5.375 L 0.953125 -3.875 C 1.085938 -4.394531 1.328125 -4.789062 1.671875 -5.0625 C 2.015625 -5.332031 2.414062 -5.46875 2.875 -5.46875 C 3.351562 -5.46875 3.769531 -5.320312 4.125 -5.03125 C 4.488281 -4.75 4.71875 -4.328125 4.8125 -3.765625 C 4.945312 -4.316406 5.1875 -4.738281 5.53125 -5.03125 C 5.875 -5.320312 6.285156 -5.46875 6.765625 -5.46875 Z M 6.765625 -5.46875 "/></g></g></g><g fill="rgb(100%, 100%, 100%)" fill-opacity="1"><g transform="translate(246.394142, 85.081174)"><g/></g></g><g fill="rgb(100%, 100%, 100%)" fill-opacity="1"><g transform="translate(248.866455, 85.081174)"><g><path d="M 7.96875 -5.375 L 8.171875 -5.375 L 6.25 0 L 6.015625 0 L 4.1875 -5.078125 L 2.359375 0 L 2.125 0 L 0.21875 -5.375 L 0.421875 -5.375 L 2.25 -0.171875 L 4.09375 -5.375 L 4.296875 -5.375 L 6.125 -0.1875 Z M 7.96875 -5.375 "/></g></g></g><g fill="rgb(100%, 100%, 100%)" fill-opacity="1"><g transform="translate(257.250815, 85.081174)"><g><path d="M 3.109375 0.09375 C 2.617188 0.09375 2.175781 -0.0195312 1.78125 -0.25 C 1.382812 -0.488281 1.070312 -0.816406 0.84375 -1.234375 C 0.625 -1.648438 0.515625 -2.132812 0.515625 -2.6875 C 0.515625 -3.238281 0.625 -3.722656 0.84375 -4.140625 C 1.070312 -4.554688 1.382812 -4.878906 1.78125 -5.109375 C 2.175781 -5.347656 2.617188 -5.46875 3.109375 -5.46875 C 3.597656 -5.46875 4.035156 -5.347656 4.421875 -5.109375 C 4.816406 -4.878906 5.128906 -4.554688 5.359375 -4.140625 C 5.585938 -3.722656 5.703125 -3.238281 5.703125 -2.6875 C 5.703125 -2.132812 5.585938 -1.648438 5.359375 -1.234375 C 5.128906 -0.816406 4.816406 -0.488281 4.421875 -0.25 C 4.035156 -0.0195312 3.597656 0.09375 3.109375 0.09375 Z M 3.109375 -0.09375 C 3.554688 -0.09375 3.960938 -0.195312 4.328125 -0.40625 C 4.691406 -0.625 4.976562 -0.925781 5.1875 -1.3125 C 5.394531 -1.707031 5.5 -2.164062 5.5 -2.6875 C 5.5 -3.207031 5.394531 -3.660156 5.1875 -4.046875 C 4.976562 -4.441406 4.691406 -4.742188 4.328125 -4.953125 C 3.960938 -5.171875 3.554688 -5.28125 3.109375 -5.28125 C 2.648438 -5.28125 2.238281 -5.171875 1.875 -4.953125 C 1.507812 -4.742188 1.222656 -4.441406 1.015625 -4.046875 C 0.804688 -3.660156 0.703125 -3.207031 0.703125 -2.6875 C 0.703125 -2.164062 0.804688 -1.707031 1.015625 -1.3125 C 1.222656 -0.925781 1.507812 -0.625 1.875 -0.40625 C 2.238281 -0.195312 2.648438 -0.09375 3.109375 -0.09375 Z M 3.109375 -0.09375 "/></g></g></g><g fill="rgb(100%, 100%, 100%)" fill-opacity="1"><g transform="translate(263.463839, 85.081174)"><g><path d="M 2.953125 -5.46875 C 3.097656 -5.46875 3.253906 -5.453125 3.421875 -5.421875 L 3.421875 -5.25 C 3.265625 -5.269531 3.113281 -5.28125 2.96875 -5.28125 C 2.570312 -5.28125 2.222656 -5.164062 1.921875 -4.9375 C 1.617188 -4.707031 1.378906 -4.382812 1.203125 -3.96875 C 1.035156 -3.550781 0.953125 -3.070312 0.953125 -2.53125 L 0.953125 0 L 0.75 0 L 0.75 -5.375 L 0.921875 -5.375 L 0.953125 -3.703125 C 1.109375 -4.265625 1.367188 -4.695312 1.734375 -5 C 2.097656 -5.3125 2.503906 -5.46875 2.953125 -5.46875 Z M 2.953125 -5.46875 "/></g></g></g><g fill="rgb(100%, 100%, 100%)" fill-opacity="1"><g transform="translate(267.161556, 85.081174)"><g><path d="M 4.671875 0 L 2.5 -3.34375 L 0.953125 -1.703125 L 0.953125 0 L 0.75 0 L 0.75 -8.171875 L 0.953125 -8.171875 L 0.953125 -1.96875 L 4.171875 -5.375 L 4.421875 -5.375 L 2.640625 -3.484375 L 4.890625 0 Z M 4.671875 0 "/></g></g></g><g fill="rgb(100%, 100%, 100%)" fill-opacity="1"><g transform="translate(272.106183, 85.081174)"><g/></g></g><g fill="rgb(100%, 100%, 100%)" fill-opacity="1"><g transform="translate(274.578503, 85.081174)"><g><path d="M 3.015625 -0.03125 C 2.765625 0.0507812 2.492188 0.09375 2.203125 0.09375 C 1.316406 0.09375 0.875 -0.453125 0.875 -1.546875 L 0.875 -5.1875 L 0.21875 -5.1875 L 0.21875 -5.375 L 0.875 -5.375 L 0.875 -6.875 L 1.0625 -6.875 L 1.0625 -5.375 L 2.84375 -5.375 L 2.84375 -5.1875 L 1.0625 -5.1875 L 1.0625 -1.5625 C 1.0625 -1.0625 1.15625 -0.691406 1.34375 -0.453125 C 1.539062 -0.210938 1.828125 -0.09375 2.203125 -0.09375 C 2.484375 -0.09375 2.75 -0.132812 3 -0.21875 Z M 3.015625 -0.03125 "/></g></g></g><g fill="rgb(100%, 100%, 100%)" fill-opacity="1"><g transform="translate(277.91075, 85.081174)"><g><path d="M 3.109375 0.09375 C 2.617188 0.09375 2.175781 -0.0195312 1.78125 -0.25 C 1.382812 -0.488281 1.070312 -0.816406 0.84375 -1.234375 C 0.625 -1.648438 0.515625 -2.132812 0.515625 -2.6875 C 0.515625 -3.238281 0.625 -3.722656 0.84375 -4.140625 C 1.070312 -4.554688 1.382812 -4.878906 1.78125 -5.109375 C 2.175781 -5.347656 2.617188 -5.46875 3.109375 -5.46875 C 3.597656 -5.46875 4.035156 -5.347656 4.421875 -5.109375 C 4.816406 -4.878906 5.128906 -4.554688 5.359375 -4.140625 C 5.585938 -3.722656 5.703125 -3.238281 5.703125 -2.6875 C 5.703125 -2.132812 5.585938 -1.648438 5.359375 -1.234375 C 5.128906 -0.816406 4.816406 -0.488281 4.421875 -0.25 C 4.035156 -0.0195312 3.597656 0.09375 3.109375 0.09375 Z M 3.109375 -0.09375 C 3.554688 -0.09375 3.960938 -0.195312 4.328125 -0.40625 C 4.691406 -0.625 4.976562 -0.925781 5.1875 -1.3125 C 5.394531 -1.707031 5.5 -2.164062 5.5 -2.6875 C 5.5 -3.207031 5.394531 -3.660156 5.1875 -4.046875 C 4.976562 -4.441406 4.691406 -4.742188 4.328125 -4.953125 C 3.960938 -5.171875 3.554688 -5.28125 3.109375 -5.28125 C 2.648438 -5.28125 2.238281 -5.171875 1.875 -4.953125 C 1.507812 -4.742188 1.222656 -4.441406 1.015625 -4.046875 C 0.804688 -3.660156 0.703125 -3.207031 0.703125 -2.6875 C 0.703125 -2.164062 0.804688 -1.707031 1.015625 -1.3125 C 1.222656 -0.925781 1.507812 -0.625 1.875 -0.40625 C 2.238281 -0.195312 2.648438 -0.09375 3.109375 -0.09375 Z M 3.109375 -0.09375 "/></g></g></g><g fill="rgb(100%, 100%, 100%)" fill-opacity="1"><g transform="translate(284.123787, 85.081174)"><g/></g></g><g fill="rgb(100%, 100%, 100%)" fill-opacity="1"><g transform="translate(286.596107, 85.081174)"><g><path d="M 3.296875 -5.46875 C 3.796875 -5.46875 4.242188 -5.351562 4.640625 -5.125 C 5.035156 -4.894531 5.34375 -4.566406 5.5625 -4.140625 C 5.789062 -3.722656 5.90625 -3.238281 5.90625 -2.6875 C 5.90625 -2.132812 5.789062 -1.644531 5.5625 -1.21875 C 5.34375 -0.800781 5.035156 -0.476562 4.640625 -0.25 C 4.242188 -0.0195312 3.796875 0.09375 3.296875 0.09375 C 2.742188 0.09375 2.253906 -0.0625 1.828125 -0.375 C 1.398438 -0.6875 1.109375 -1.117188 0.953125 -1.671875 L 0.953125 2.0625 L 0.75 2.0625 L 0.75 -5.375 L 0.921875 -5.375 L 0.953125 -3.6875 C 1.109375 -4.238281 1.398438 -4.671875 1.828125 -4.984375 C 2.253906 -5.304688 2.742188 -5.46875 3.296875 -5.46875 Z M 3.296875 -0.09375 C 3.753906 -0.09375 4.164062 -0.195312 4.53125 -0.40625 C 4.90625 -0.625 5.195312 -0.925781 5.40625 -1.3125 C 5.613281 -1.707031 5.71875 -2.164062 5.71875 -2.6875 C 5.71875 -3.207031 5.613281 -3.660156 5.40625 -4.046875 C 5.195312 -4.441406 4.90625 -4.742188 4.53125 -4.953125 C 4.164062 -5.171875 3.753906 -5.28125 3.296875 -5.28125 C 2.859375 -5.28125 2.457031 -5.171875 2.09375 -4.953125 C 1.738281 -4.742188 1.457031 -4.441406 1.25 -4.046875 C 1.050781 -3.660156 0.953125 -3.207031 0.953125 -2.6875 C 0.953125 -2.164062 1.050781 -1.707031 1.25 -1.3125 C 1.457031 -0.925781 1.738281 -0.625 2.09375 -0.40625 C 2.457031 -0.195312 2.859375 -0.09375 3.296875 -0.09375 Z M 3.296875 -0.09375 "/></g></g></g><g fill="rgb(100%, 100%, 100%)" fill-opacity="1"><g transform="translate(293.024115, 85.081174)"><g><path d="M 2.0625 0.09375 C 1.757812 0.09375 1.515625 0.0546875 1.328125 -0.015625 C 1.140625 -0.0859375 0.992188 -0.222656 0.890625 -0.421875 C 0.796875 -0.628906 0.75 -0.929688 0.75 -1.328125 L 0.75 -8.171875 L 0.953125 -8.171875 L 0.953125 -1.34375 C 0.953125 -0.988281 0.988281 -0.71875 1.0625 -0.53125 C 1.144531 -0.351562 1.257812 -0.234375 1.40625 -0.171875 C 1.5625 -0.117188 1.773438 -0.09375 2.046875 -0.09375 L 2.078125 -0.09375 L 2.09375 0.09375 Z M 2.0625 0.09375 "/></g></g></g><g fill="rgb(100%, 100%, 100%)" fill-opacity="1"><g transform="translate(295.442686, 85.081174)"><g><path d="M 5.671875 -5.375 L 5.671875 0 L 5.5 0 L 5.484375 -1.6875 C 5.328125 -1.132812 5.035156 -0.695312 4.609375 -0.375 C 4.179688 -0.0625 3.6875 0.09375 3.125 0.09375 C 2.632812 0.09375 2.1875 -0.0195312 1.78125 -0.25 C 1.382812 -0.476562 1.070312 -0.800781 0.84375 -1.21875 C 0.625 -1.644531 0.515625 -2.132812 0.515625 -2.6875 C 0.515625 -3.238281 0.625 -3.722656 0.84375 -4.140625 C 1.070312 -4.566406 1.382812 -4.894531 1.78125 -5.125 C 2.1875 -5.351562 2.632812 -5.46875 3.125 -5.46875 C 3.695312 -5.46875 4.191406 -5.3125 4.609375 -5 C 5.035156 -4.6875 5.328125 -4.253906 5.484375 -3.703125 L 5.484375 -5.375 Z M 3.125 -0.09375 C 3.570312 -0.09375 3.972656 -0.195312 4.328125 -0.40625 C 4.679688 -0.625 4.957031 -0.925781 5.15625 -1.3125 C 5.363281 -1.707031 5.46875 -2.164062 5.46875 -2.6875 C 5.46875 -3.207031 5.363281 -3.660156 5.15625 -4.046875 C 4.957031 -4.441406 4.679688 -4.742188 4.328125 -4.953125 C 3.972656 -5.171875 3.570312 -5.28125 3.125 -5.28125 C 2.664062 -5.28125 2.25 -5.171875 1.875 -4.953125 C 1.507812 -4.742188 1.222656 -4.441406 1.015625 -4.046875 C 0.804688 -3.660156 0.703125 -3.207031 0.703125 -2.6875 C 0.703125 -2.164062 0.804688 -1.707031 1.015625 -1.3125 C 1.222656 -0.925781 1.507812 -0.625 1.875 -0.40625 C 2.25 -0.195312 2.664062 -0.09375 3.125 -0.09375 Z M 3.125 -0.09375 "/></g></g></g><g fill="rgb(100%, 100%, 100%)" fill-opacity="1"><g transform="translate(301.870695, 85.081174)"><g><path d="M 4.6875 -5.375 L 4.890625 -5.375 L 1.703125 2.0625 L 1.5 2.0625 L 2.375 0.03125 L 0.046875 -5.375 L 0.265625 -5.375 L 2.46875 -0.203125 Z M 4.6875 -5.375 "/></g></g></g><g fill="rgb(100%, 100%, 100%)" fill-opacity="1"><g transform="translate(306.815322, 85.081174)"><g><path d="M 0.875 0.09375 C 0.78125 0.09375 0.695312 0.0625 0.625 0 C 0.5625 -0.0703125 0.53125 -0.148438 0.53125 -0.234375 C 0.53125 -0.316406 0.5625 -0.390625 0.625 -0.453125 C 0.695312 -0.523438 0.78125 -0.5625 0.875 -0.5625 C 0.957031 -0.5625 1.03125 -0.523438 1.09375 -0.453125 C 1.15625 -0.390625 1.1875 -0.316406 1.1875 -0.234375 C 1.1875 -0.148438 1.15625 -0.0703125 1.09375 0 C 1.03125 0.0625 0.957031 0.09375 0.875 0.09375 Z M 0.875 0.09375 "/></g></g></g></svg>