<svg xmlns="http://www.w3.org/2000/svg" xmlns:xlink="http://www.w3.org/1999/xlink" width="610" zoomAndPan="magnify" viewBox="0 0 457.5 232.499993" height="310" preserveAspectRatio="xMidYMid meet" version="1.0"><defs><g><g id="id1"/><g id="id2"/></g><clipPath id="id3"><path d="M 0.242188 0 L 456.757812 0 L 456.757812 232 L 0.242188 232 Z M 0.242188 0 " clip-rule="nonzero"/></clipPath><clipPath id="id4"><path d="M 190.574219 88.738281 L 284.222656 88.738281 L 284.222656 181.640625 L 190.574219 181.640625 Z M 190.574219 88.738281 " clip-rule="nonzero"/></clipPath><clipPath id="id5"><path d="M 232 88.738281 L 284.222656 88.738281 L 284.222656 157 L 232 157 Z M 232 88.738281 " clip-rule="nonzero"/></clipPath></defs><g clip-path="url(#id3)"><path fill="rgb(100%, 100%, 100%)" d="M 0.242188 0 L 457.257812 0 L 457.257812 238.996094 L 0.242188 238.996094 Z M 0.242188 0 " fill-opacity="1" fill-rule="nonzero"/><path fill="rgb(100%, 100%, 100%)" d="M 0.242188 0 L 457.257812 0 L 457.257812 232.253906 L 0.242188 232.253906 Z M 0.242188 0 " fill-opacity="1" fill-rule="nonzero"/><path fill="rgb(100%, 100%, 100%)" d="M 0.242188 0 L 457.257812 0 L 457.257812 232.253906 L 0.242188 232.253906 Z M 0.242188 0 " fill-opacity="1" fill-rule="nonzero"/><path fill="rgb(100%, 100%, 100%)" d="M 0.242188 0 L 457.257812 0 L 457.257812 232.253906 L 0.242188 232.253906 Z M 0.242188 0 " fill-opacity="1" fill-rule="nonzero"/></g><g clip-path="url(#id4)"><path fill="rgb(50.19989%, 79.998779%, 15.689087%)" d="M 277.570312 89.472656 C 275.386719 89.886719 273.210938 90.421875 271.085938 91.101562 C 268.941406 91.75 266.855469 92.566406 264.789062 93.449219 C 262.734375 94.351562 260.707031 95.332031 258.734375 96.425781 C 250.851562 100.789062 243.789062 106.570312 237.703125 113.128906 C 231.605469 119.699219 226.457031 127.039062 222.210938 134.800781 C 221.160156 136.75 220.144531 138.714844 219.203125 140.71875 C 218.25 142.714844 217.378906 144.746094 216.546875 146.800781 L 216.535156 146.832031 C 214.5625 145.316406 212.546875 143.914062 210.472656 142.613281 L 208.136719 141.15625 L 205.742188 139.792969 C 204.160156 138.882812 202.507812 138.070312 200.875 137.253906 C 197.558594 135.691406 194.191406 134.234375 190.597656 133.183594 C 192.613281 136.320312 194.71875 139.226562 196.777344 142.140625 L 202.925781 150.644531 L 205.863281 154.820312 C 206.824219 156.199219 207.761719 157.574219 208.644531 158.941406 C 209.101562 159.617188 209.519531 160.304688 209.949219 160.976562 C 210.351562 161.652344 210.777344 162.316406 211.152344 162.984375 C 211.539062 163.652344 211.902344 164.308594 212.242188 164.953125 C 212.585938 165.605469 212.875 166.242188 213.175781 166.851562 L 220.339844 181.636719 L 228.625 165.035156 L 229.839844 162.605469 L 231.164062 160.011719 C 232.058594 158.277344 232.976562 156.546875 233.90625 154.820312 C 234.835938 153.09375 235.792969 151.386719 236.742188 149.671875 C 237.710938 147.964844 238.667969 146.257812 239.664062 144.578125 C 243.601562 137.816406 247.765625 131.246094 252.207031 124.875 C 256.648438 118.503906 261.378906 112.335938 266.617188 106.363281 C 267.933594 104.886719 269.246094 103.359375 270.644531 101.914062 L 272.738281 99.707031 L 274.902344 97.523438 C 276.363281 96.066406 277.871094 94.625 279.417969 93.167969 L 284.199219 88.738281 C 281.972656 88.8125 279.75 89.050781 277.570312 89.472656 " fill-opacity="1" fill-rule="nonzero"/></g><path fill="rgb(65.098572%, 48.239136%, 27.839661%)" d="M 232.855469 156.789062 L 232.855469 156.785156 C 233.152344 156.226562 233.449219 155.667969 233.75 155.109375 C 233.449219 155.671875 233.152344 156.230469 232.855469 156.789062 " fill-opacity="1" fill-rule="nonzero"/><g clip-path="url(#id5)"><path fill="rgb(25.099182%, 37.649536%, 23.139954%)" d="M 232.855469 156.785156 L 232.855469 118.773438 C 234.402344 116.839844 236.011719 114.953125 237.703125 113.128906 C 243.789062 106.570312 250.851562 100.789062 258.734375 96.425781 C 260.707031 95.332031 262.734375 94.351562 264.789062 93.449219 C 266.855469 92.566406 268.941406 91.75 271.085938 91.101562 C 273.210938 90.421875 275.386719 89.886719 277.570312 89.472656 C 279.75 89.050781 281.972656 88.8125 284.199219 88.738281 L 279.417969 93.167969 C 277.871094 94.625 276.363281 96.066406 274.902344 97.523438 L 272.738281 99.707031 L 270.644531 101.914062 C 269.246094 103.359375 267.933594 104.886719 266.617188 106.363281 C 261.378906 112.335938 256.648438 118.503906 252.207031 124.875 C 247.765625 131.246094 243.601562 137.816406 239.664062 144.578125 C 238.667969 146.257812 237.710938 147.964844 236.742188 149.671875 C 235.792969 151.386719 234.835938 153.09375 233.90625 154.820312 C 233.855469 154.917969 233.800781 155.015625 233.75 155.109375 C 233.449219 155.667969 233.152344 156.226562 232.855469 156.785156 " fill-opacity="1" fill-rule="nonzero"/></g><g fill="rgb(0%, 0%, 0%)" fill-opacity="1"><g transform="translate(184.868863, 61.449361)"><g><path d="M 8 -6.078125 C 7.414062 -5.679688 7.003906 -5.347656 6.765625 -5.078125 C 6.535156 -4.816406 6.40625 -4.539062 6.375 -4.25 L 12.921875 -4.25 L 12.921875 0 L 1.015625 0 L 1.015625 -1.921875 C 1.015625 -3.148438 1.082031 -4.148438 1.21875 -4.921875 C 1.363281 -5.691406 1.6875 -6.425781 2.1875 -7.125 C 2.695312 -7.832031 3.488281 -8.523438 4.5625 -9.203125 L 6.125 -10.203125 C 6.664062 -10.535156 7.085938 -10.867188 7.390625 -11.203125 C 7.691406 -11.546875 7.84375 -11.9375 7.84375 -12.375 C 7.84375 -12.769531 7.703125 -13.070312 7.421875 -13.28125 C 7.140625 -13.488281 6.804688 -13.59375 6.421875 -13.59375 C 5.609375 -13.59375 4.785156 -13.144531 3.953125 -12.25 L 0.921875 -15.140625 C 1.722656 -16.003906 2.679688 -16.679688 3.796875 -17.171875 C 4.921875 -17.671875 6.113281 -17.921875 7.375 -17.921875 C 8.4375 -17.921875 9.398438 -17.71875 10.265625 -17.3125 C 11.128906 -16.90625 11.8125 -16.3125 12.3125 -15.53125 C 12.8125 -14.75 13.0625 -13.816406 13.0625 -12.734375 C 13.0625 -11.441406 12.6875 -10.328125 11.9375 -9.390625 C 11.195312 -8.453125 10.265625 -7.601562 9.140625 -6.84375 Z M 8 -6.078125 "/></g></g></g><g fill="rgb(0%, 0%, 0%)" fill-opacity="1"><g transform="translate(199.086226, 61.449361)"><g><path d="M 7 -17.578125 C 8.757812 -17.578125 10.28125 -17.195312 11.5625 -16.4375 C 12.84375 -15.6875 13.816406 -14.644531 14.484375 -13.3125 C 15.160156 -11.988281 15.5 -10.476562 15.5 -8.78125 C 15.5 -7.09375 15.160156 -5.582031 14.484375 -4.25 C 13.816406 -2.925781 12.84375 -1.882812 11.5625 -1.125 C 10.28125 -0.375 8.757812 0 7 0 L 1.15625 0 L 1.15625 -17.578125 Z M 6.875 -4.25 C 7.9375 -4.25 8.71875 -4.609375 9.21875 -5.328125 C 9.726562 -6.054688 9.984375 -7.21875 9.984375 -8.8125 C 9.984375 -10.394531 9.726562 -11.539062 9.21875 -12.25 C 8.71875 -12.957031 7.9375 -13.3125 6.875 -13.3125 L 6.453125 -13.3125 L 6.453125 -4.25 Z M 6.875 -4.25 "/></g></g></g><g fill="rgb(0%, 0%, 0%)" fill-opacity="1"><g transform="translate(215.222358, 61.449361)"><g><path d="M 7 0.34375 C 4.863281 0.34375 3.285156 -0.238281 2.265625 -1.40625 C 1.242188 -2.582031 0.734375 -4.117188 0.734375 -6.015625 C 0.734375 -7.910156 1.242188 -9.441406 2.265625 -10.609375 C 3.285156 -11.785156 4.863281 -12.375 7 -12.375 C 9.164062 -12.375 10.753906 -11.785156 11.765625 -10.609375 C 12.785156 -9.441406 13.296875 -7.910156 13.296875 -6.015625 C 13.296875 -4.117188 12.785156 -2.582031 11.765625 -1.40625 C 10.753906 -0.238281 9.164062 0.34375 7 0.34375 Z M 7 -3.578125 C 7.832031 -3.578125 8.25 -4.390625 8.25 -6.015625 C 8.25 -7.628906 7.832031 -8.4375 7 -8.4375 C 6.613281 -8.4375 6.3125 -8.234375 6.09375 -7.828125 C 5.882812 -7.429688 5.78125 -6.828125 5.78125 -6.015625 C 5.78125 -5.191406 5.882812 -4.578125 6.09375 -4.171875 C 6.3125 -3.773438 6.613281 -3.578125 7 -3.578125 Z M 7 -3.578125 "/></g></g></g><g fill="rgb(0%, 0%, 0%)" fill-opacity="1"><g transform="translate(229.25479, 61.449361)"><g><path d="M 6.453125 -4.25 L 10.59375 -4.25 L 10.59375 0 L 1.15625 0 L 1.15625 -17.578125 L 6.453125 -17.578125 Z M 6.453125 -4.25 "/></g></g></g><g fill="rgb(0%, 0%, 0%)" fill-opacity="1"><g transform="translate(240.305036, 61.449361)"><g><path d="M 3.625 -13.671875 C 2.945312 -13.671875 2.367188 -13.90625 1.890625 -14.375 C 1.410156 -14.851562 1.171875 -15.4375 1.171875 -16.125 C 1.171875 -16.800781 1.410156 -17.375 1.890625 -17.84375 C 2.367188 -18.320312 2.945312 -18.5625 3.625 -18.5625 C 4.300781 -18.5625 4.878906 -18.320312 5.359375 -17.84375 C 5.835938 -17.375 6.078125 -16.800781 6.078125 -16.125 C 6.078125 -15.4375 5.835938 -14.851562 5.359375 -14.375 C 4.878906 -13.90625 4.300781 -13.671875 3.625 -13.671875 Z M 1.109375 -12.03125 L 6.203125 -12.03125 L 6.203125 0 L 1.109375 0 Z M 1.109375 -12.03125 "/></g></g></g><g fill="rgb(0%, 0%, 0%)" fill-opacity="1"><g transform="translate(247.587107, 61.449361)"><g><path d="M 5.25 0.34375 C 4.257812 0.34375 3.332031 0.191406 2.46875 -0.109375 C 1.601562 -0.421875 0.859375 -0.851562 0.234375 -1.40625 L 2.453125 -3.84375 C 3.421875 -3.207031 4.285156 -2.890625 5.046875 -2.890625 C 5.671875 -2.890625 5.984375 -3.082031 5.984375 -3.46875 C 5.984375 -3.59375 5.925781 -3.691406 5.8125 -3.765625 C 5.695312 -3.847656 5.476562 -3.945312 5.15625 -4.0625 L 4.34375 -4.375 C 3.375 -4.738281 2.492188 -5.226562 1.703125 -5.84375 C 0.921875 -6.46875 0.53125 -7.375 0.53125 -8.5625 C 0.53125 -9.71875 0.960938 -10.640625 1.828125 -11.328125 C 2.703125 -12.023438 3.894531 -12.375 5.40625 -12.375 C 6.382812 -12.375 7.300781 -12.222656 8.15625 -11.921875 C 9.019531 -11.617188 9.75 -11.242188 10.34375 -10.796875 L 8.328125 -8.28125 C 7.984375 -8.539062 7.609375 -8.75 7.203125 -8.90625 C 6.796875 -9.070312 6.375 -9.15625 5.9375 -9.15625 C 5.34375 -9.15625 5.046875 -8.988281 5.046875 -8.65625 C 5.046875 -8.414062 5.285156 -8.222656 5.765625 -8.078125 L 6.734375 -7.71875 C 7.421875 -7.476562 8.019531 -7.222656 8.53125 -6.953125 C 9.050781 -6.679688 9.507812 -6.28125 9.90625 -5.75 C 10.3125 -5.226562 10.515625 -4.5625 10.515625 -3.75 C 10.515625 -2.570312 10.078125 -1.59375 9.203125 -0.8125 C 8.335938 -0.0390625 7.019531 0.34375 5.25 0.34375 Z M 5.25 0.34375 "/></g></g></g><g fill="rgb(0%, 0%, 0%)" fill-opacity="1"><g transform="translate(258.683589, 61.449361)"><g><path d="M 9.3125 0.0625 C 8.238281 0.25 7.175781 0.34375 6.125 0.34375 C 4.425781 0.34375 3.226562 -0.0546875 2.53125 -0.859375 C 1.832031 -1.660156 1.484375 -2.976562 1.484375 -4.8125 L 1.484375 -8.1875 L 0 -8.1875 L 0.234375 -12.03125 L 1.484375 -12.03125 L 1.484375 -15.03125 L 6.515625 -15.03125 L 6.515625 -12.03125 L 9.09375 -12.03125 L 9.09375 -8.1875 L 6.515625 -8.1875 L 6.515625 -5.3125 C 6.515625 -4.6875 6.609375 -4.234375 6.796875 -3.953125 C 6.984375 -3.671875 7.335938 -3.53125 7.859375 -3.53125 C 8.210938 -3.53125 8.609375 -3.578125 9.046875 -3.671875 Z M 9.3125 0.0625 "/></g></g></g><g fill="rgb(0%, 0%, 0%)" fill-opacity="1"><g transform="translate(268.571437, 61.449361)"><g/></g></g><g fill="rgb(0%, 0%, 0%)" fill-opacity="1"><g transform="translate(130.470842, 84.523813)"><g><path d="M 7 -6.625 L 7 -0.703125 C 7 1.535156 5.988281 2.65625 3.96875 2.65625 C 3.3125 2.65625 2.753906 2.535156 2.296875 2.296875 C 1.847656 2.066406 1.5 1.785156 1.25 1.453125 L 1.40625 1.28125 C 1.632812 1.59375 1.960938 1.859375 2.390625 2.078125 C 2.816406 2.304688 3.351562 2.421875 4 2.421875 C 5.832031 2.421875 6.75 1.378906 6.75 -0.703125 L 6.75 -2.0625 C 6.550781 -1.382812 6.191406 -0.851562 5.671875 -0.46875 C 5.148438 -0.0820312 4.535156 0.109375 3.828125 0.109375 C 3.222656 0.109375 2.675781 -0.03125 2.1875 -0.3125 C 1.707031 -0.59375 1.328125 -0.992188 1.046875 -1.515625 C 0.773438 -2.035156 0.640625 -2.632812 0.640625 -3.3125 C 0.640625 -3.988281 0.773438 -4.585938 1.046875 -5.109375 C 1.328125 -5.628906 1.707031 -6.03125 2.1875 -6.3125 C 2.675781 -6.59375 3.222656 -6.734375 3.828125 -6.734375 C 4.535156 -6.734375 5.148438 -6.535156 5.671875 -6.140625 C 6.203125 -5.753906 6.5625 -5.222656 6.75 -4.546875 L 6.78125 -6.625 Z M 3.828125 -0.125 C 4.378906 -0.125 4.875 -0.253906 5.3125 -0.515625 C 5.757812 -0.773438 6.109375 -1.144531 6.359375 -1.625 C 6.617188 -2.113281 6.75 -2.675781 6.75 -3.3125 C 6.75 -3.945312 6.617188 -4.503906 6.359375 -4.984375 C 6.109375 -5.460938 5.757812 -5.832031 5.3125 -6.09375 C 4.875 -6.363281 4.378906 -6.5 3.828125 -6.5 C 3.273438 -6.5 2.769531 -6.367188 2.3125 -6.109375 C 1.863281 -5.847656 1.507812 -5.472656 1.25 -4.984375 C 1 -4.503906 0.875 -3.945312 0.875 -3.3125 C 0.875 -2.675781 1 -2.113281 1.25 -1.625 C 1.507812 -1.144531 1.863281 -0.773438 2.3125 -0.515625 C 2.769531 -0.253906 3.273438 -0.125 3.828125 -0.125 Z M 3.828125 -0.125 "/></g></g></g><g fill="rgb(0%, 0%, 0%)" fill-opacity="1"><g transform="translate(138.387742, 84.523813)"><g><path d="M 1.078125 -8.15625 C 0.972656 -8.15625 0.882812 -8.1875 0.8125 -8.25 C 0.738281 -8.320312 0.703125 -8.40625 0.703125 -8.5 C 0.703125 -8.601562 0.738281 -8.6875 0.8125 -8.75 C 0.882812 -8.820312 0.972656 -8.859375 1.078125 -8.859375 C 1.171875 -8.859375 1.253906 -8.820312 1.328125 -8.75 C 1.398438 -8.6875 1.4375 -8.601562 1.4375 -8.5 C 1.4375 -8.40625 1.398438 -8.320312 1.328125 -8.25 C 1.253906 -8.1875 1.171875 -8.15625 1.078125 -8.15625 Z M 0.953125 -6.625 L 1.1875 -6.625 L 1.1875 0 L 0.953125 0 Z M 0.953125 -6.625 "/></g></g></g><g fill="rgb(0%, 0%, 0%)" fill-opacity="1"><g transform="translate(140.519214, 84.523813)"><g><path d="M 5.796875 -6.625 L 6.0625 -6.625 L 3.203125 0 L 2.921875 0 L 0.0625 -6.625 L 0.3125 -6.625 L 3.0625 -0.21875 Z M 5.796875 -6.625 "/></g></g></g><g fill="rgb(0%, 0%, 0%)" fill-opacity="1"><g transform="translate(146.635605, 84.523813)"><g><path d="M 6.78125 -3.296875 L 0.875 -3.296875 C 0.875 -2.679688 0.992188 -2.128906 1.234375 -1.640625 C 1.484375 -1.160156 1.832031 -0.785156 2.28125 -0.515625 C 2.726562 -0.253906 3.238281 -0.125 3.8125 -0.125 C 4.351562 -0.125 4.820312 -0.222656 5.21875 -0.421875 C 5.625 -0.628906 5.953125 -0.929688 6.203125 -1.328125 L 6.40625 -1.1875 C 6.125 -0.769531 5.765625 -0.445312 5.328125 -0.21875 C 4.890625 0 4.382812 0.109375 3.8125 0.109375 C 3.1875 0.109375 2.632812 -0.03125 2.15625 -0.3125 C 1.675781 -0.601562 1.300781 -1.007812 1.03125 -1.53125 C 0.769531 -2.050781 0.640625 -2.644531 0.640625 -3.3125 C 0.640625 -3.976562 0.769531 -4.570312 1.03125 -5.09375 C 1.289062 -5.613281 1.65625 -6.015625 2.125 -6.296875 C 2.59375 -6.585938 3.132812 -6.734375 3.75 -6.734375 C 4.300781 -6.734375 4.804688 -6.601562 5.265625 -6.34375 C 5.734375 -6.09375 6.101562 -5.71875 6.375 -5.21875 C 6.644531 -4.726562 6.78125 -4.132812 6.78125 -3.4375 Z M 3.734375 -6.5 C 2.910156 -6.5 2.238281 -6.226562 1.71875 -5.6875 C 1.195312 -5.144531 0.914062 -4.425781 0.875 -3.53125 L 6.546875 -3.53125 C 6.523438 -4.164062 6.382812 -4.707031 6.125 -5.15625 C 5.875 -5.613281 5.535156 -5.953125 5.109375 -6.171875 C 4.691406 -6.390625 4.234375 -6.5 3.734375 -6.5 Z M 3.734375 -6.5 "/></g></g></g><g fill="rgb(0%, 0%, 0%)" fill-opacity="1"><g transform="translate(154.049428, 84.523813)"><g><path d="M 2.984375 0.109375 C 1.941406 0.109375 1.125 -0.296875 0.53125 -1.109375 L 0.71875 -1.265625 C 0.988281 -0.878906 1.304688 -0.59375 1.671875 -0.40625 C 2.035156 -0.21875 2.46875 -0.125 2.96875 -0.125 C 3.582031 -0.125 4.070312 -0.257812 4.4375 -0.53125 C 4.800781 -0.8125 4.984375 -1.195312 4.984375 -1.6875 C 4.984375 -2 4.898438 -2.253906 4.734375 -2.453125 C 4.566406 -2.648438 4.359375 -2.804688 4.109375 -2.921875 C 3.859375 -3.035156 3.503906 -3.164062 3.046875 -3.3125 L 2.515625 -3.46875 C 2.085938 -3.601562 1.742188 -3.726562 1.484375 -3.84375 C 1.222656 -3.957031 1.007812 -4.113281 0.84375 -4.3125 C 0.6875 -4.519531 0.609375 -4.785156 0.609375 -5.109375 C 0.609375 -5.617188 0.800781 -6.015625 1.1875 -6.296875 C 1.582031 -6.585938 2.097656 -6.734375 2.734375 -6.734375 C 3.617188 -6.734375 4.363281 -6.445312 4.96875 -5.875 L 4.8125 -5.703125 C 4.25 -6.234375 3.554688 -6.5 2.734375 -6.5 C 2.160156 -6.5 1.703125 -6.375 1.359375 -6.125 C 1.015625 -5.882812 0.84375 -5.550781 0.84375 -5.125 C 0.84375 -4.851562 0.914062 -4.628906 1.0625 -4.453125 C 1.207031 -4.273438 1.394531 -4.132812 1.625 -4.03125 C 1.851562 -3.925781 2.171875 -3.816406 2.578125 -3.703125 L 3.140625 -3.53125 C 3.617188 -3.382812 4 -3.242188 4.28125 -3.109375 C 4.5625 -2.984375 4.785156 -2.804688 4.953125 -2.578125 C 5.128906 -2.347656 5.21875 -2.054688 5.21875 -1.703125 C 5.21875 -1.117188 5.007812 -0.671875 4.59375 -0.359375 C 4.175781 -0.046875 3.640625 0.109375 2.984375 0.109375 Z M 2.984375 0.109375 "/></g></g></g><g fill="rgb(0%, 0%, 0%)" fill-opacity="1"><g transform="translate(159.795141, 84.523813)"><g/></g></g><g fill="rgb(0%, 0%, 0%)" fill-opacity="1"><g transform="translate(162.840098, 84.523813)"><g><path d="M 5.78125 -6.625 L 6.03125 -6.625 L 2.09375 2.546875 L 1.859375 2.546875 L 2.921875 0.046875 L 0.0625 -6.625 L 0.3125 -6.625 L 3.046875 -0.25 Z M 5.78125 -6.625 "/></g></g></g><g fill="rgb(0%, 0%, 0%)" fill-opacity="1"><g transform="translate(168.930013, 84.523813)"><g><path d="M 3.828125 0.109375 C 3.222656 0.109375 2.675781 -0.03125 2.1875 -0.3125 C 1.707031 -0.59375 1.328125 -0.992188 1.046875 -1.515625 C 0.773438 -2.035156 0.640625 -2.632812 0.640625 -3.3125 C 0.640625 -3.988281 0.773438 -4.585938 1.046875 -5.109375 C 1.328125 -5.628906 1.707031 -6.03125 2.1875 -6.3125 C 2.675781 -6.59375 3.222656 -6.734375 3.828125 -6.734375 C 4.429688 -6.734375 4.972656 -6.59375 5.453125 -6.3125 C 5.941406 -6.03125 6.320312 -5.628906 6.59375 -5.109375 C 6.875 -4.585938 7.015625 -3.988281 7.015625 -3.3125 C 7.015625 -2.632812 6.875 -2.035156 6.59375 -1.515625 C 6.320312 -0.992188 5.941406 -0.59375 5.453125 -0.3125 C 4.972656 -0.03125 4.429688 0.109375 3.828125 0.109375 Z M 3.828125 -0.125 C 4.378906 -0.125 4.878906 -0.253906 5.328125 -0.515625 C 5.785156 -0.773438 6.140625 -1.144531 6.390625 -1.625 C 6.648438 -2.113281 6.78125 -2.675781 6.78125 -3.3125 C 6.78125 -3.945312 6.648438 -4.503906 6.390625 -4.984375 C 6.140625 -5.472656 5.785156 -5.847656 5.328125 -6.109375 C 4.878906 -6.367188 4.378906 -6.5 3.828125 -6.5 C 3.273438 -6.5 2.769531 -6.367188 2.3125 -6.109375 C 1.863281 -5.847656 1.507812 -5.472656 1.25 -4.984375 C 1 -4.503906 0.875 -3.945312 0.875 -3.3125 C 0.875 -2.675781 1 -2.113281 1.25 -1.625 C 1.507812 -1.144531 1.863281 -0.773438 2.3125 -0.515625 C 2.769531 -0.253906 3.273438 -0.125 3.828125 -0.125 Z M 3.828125 -0.125 "/></g></g></g><g fill="rgb(0%, 0%, 0%)" fill-opacity="1"><g transform="translate(176.582129, 84.523813)"><g><path d="M 3.546875 0.109375 C 2.773438 0.109375 2.132812 -0.09375 1.625 -0.5 C 1.113281 -0.914062 0.859375 -1.566406 0.859375 -2.453125 L 0.859375 -6.625 L 1.09375 -6.625 L 1.09375 -2.453125 C 1.09375 -1.691406 1.3125 -1.113281 1.75 -0.71875 C 2.195312 -0.320312 2.796875 -0.125 3.546875 -0.125 C 4.296875 -0.125 4.890625 -0.320312 5.328125 -0.71875 C 5.773438 -1.113281 6 -1.691406 6 -2.453125 L 6 -6.625 L 6.234375 -6.625 L 6.234375 -2.453125 C 6.234375 -1.566406 5.976562 -0.914062 5.46875 -0.5 C 4.957031 -0.09375 4.316406 0.109375 3.546875 0.109375 Z M 3.546875 0.109375 "/></g></g></g><g fill="rgb(0%, 0%, 0%)" fill-opacity="1"><g transform="translate(183.678213, 84.523813)"><g/></g></g><g fill="rgb(0%, 0%, 0%)" fill-opacity="1"><g transform="translate(186.72317, 84.523813)"><g><path d="M 2.734375 -9.953125 C 2.265625 -9.953125 1.910156 -9.804688 1.671875 -9.515625 C 1.429688 -9.222656 1.3125 -8.769531 1.3125 -8.15625 L 1.3125 -6.625 L 3.5 -6.625 L 3.5 -6.40625 L 1.3125 -6.40625 L 1.3125 0 L 1.078125 0 L 1.078125 -6.40625 L 0.265625 -6.40625 L 0.28125 -6.625 L 1.078125 -6.625 L 1.078125 -8.15625 C 1.078125 -9.5 1.632812 -10.171875 2.75 -10.171875 C 3.15625 -10.171875 3.5625 -10.070312 3.96875 -9.875 L 3.953125 -9.640625 C 3.492188 -9.847656 3.085938 -9.953125 2.734375 -9.953125 Z M 2.734375 -9.953125 "/></g></g></g><g fill="rgb(0%, 0%, 0%)" fill-opacity="1"><g transform="translate(190.363889, 84.523813)"><g><path d="M 3.828125 0.109375 C 3.222656 0.109375 2.675781 -0.03125 2.1875 -0.3125 C 1.707031 -0.59375 1.328125 -0.992188 1.046875 -1.515625 C 0.773438 -2.035156 0.640625 -2.632812 0.640625 -3.3125 C 0.640625 -3.988281 0.773438 -4.585938 1.046875 -5.109375 C 1.328125 -5.628906 1.707031 -6.03125 2.1875 -6.3125 C 2.675781 -6.59375 3.222656 -6.734375 3.828125 -6.734375 C 4.429688 -6.734375 4.972656 -6.59375 5.453125 -6.3125 C 5.941406 -6.03125 6.320312 -5.628906 6.59375 -5.109375 C 6.875 -4.585938 7.015625 -3.988281 7.015625 -3.3125 C 7.015625 -2.632812 6.875 -2.035156 6.59375 -1.515625 C 6.320312 -0.992188 5.941406 -0.59375 5.453125 -0.3125 C 4.972656 -0.03125 4.429688 0.109375 3.828125 0.109375 Z M 3.828125 -0.125 C 4.378906 -0.125 4.878906 -0.253906 5.328125 -0.515625 C 5.785156 -0.773438 6.140625 -1.144531 6.390625 -1.625 C 6.648438 -2.113281 6.78125 -2.675781 6.78125 -3.3125 C 6.78125 -3.945312 6.648438 -4.503906 6.390625 -4.984375 C 6.140625 -5.472656 5.785156 -5.847656 5.328125 -6.109375 C 4.878906 -6.367188 4.378906 -6.5 3.828125 -6.5 C 3.273438 -6.5 2.769531 -6.367188 2.3125 -6.109375 C 1.863281 -5.847656 1.507812 -5.472656 1.25 -4.984375 C 1 -4.503906 0.875 -3.945312 0.875 -3.3125 C 0.875 -2.675781 1 -2.113281 1.25 -1.625 C 1.507812 -1.144531 1.863281 -0.773438 2.3125 -0.515625 C 2.769531 -0.253906 3.273438 -0.125 3.828125 -0.125 Z M 3.828125 -0.125 "/></g></g></g><g fill="rgb(0%, 0%, 0%)" fill-opacity="1"><g transform="translate(198.016005, 84.523813)"><g><path d="M 3.828125 0.109375 C 3.222656 0.109375 2.675781 -0.03125 2.1875 -0.3125 C 1.707031 -0.59375 1.328125 -0.992188 1.046875 -1.515625 C 0.773438 -2.035156 0.640625 -2.632812 0.640625 -3.3125 C 0.640625 -3.988281 0.773438 -4.585938 1.046875 -5.109375 C 1.328125 -5.628906 1.707031 -6.03125 2.1875 -6.3125 C 2.675781 -6.59375 3.222656 -6.734375 3.828125 -6.734375 C 4.273438 -6.734375 4.691406 -6.648438 5.078125 -6.484375 C 5.460938 -6.316406 5.800781 -6.085938 6.09375 -5.796875 L 5.9375 -5.625 C 5.664062 -5.914062 5.351562 -6.132812 5 -6.28125 C 4.644531 -6.425781 4.253906 -6.5 3.828125 -6.5 C 3.273438 -6.5 2.769531 -6.367188 2.3125 -6.109375 C 1.863281 -5.847656 1.507812 -5.472656 1.25 -4.984375 C 1 -4.503906 0.875 -3.945312 0.875 -3.3125 C 0.875 -2.675781 1 -2.113281 1.25 -1.625 C 1.507812 -1.144531 1.863281 -0.773438 2.3125 -0.515625 C 2.769531 -0.253906 3.273438 -0.125 3.828125 -0.125 C 4.328125 -0.125 4.773438 -0.21875 5.171875 -0.40625 C 5.578125 -0.601562 5.910156 -0.890625 6.171875 -1.265625 L 6.359375 -1.109375 C 6.078125 -0.722656 5.71875 -0.421875 5.28125 -0.203125 C 4.84375 0.00390625 4.359375 0.109375 3.828125 0.109375 Z M 3.828125 0.109375 "/></g></g></g><g fill="rgb(0%, 0%, 0%)" fill-opacity="1"><g transform="translate(204.834066, 84.523813)"><g><path d="M 3.546875 0.109375 C 2.773438 0.109375 2.132812 -0.09375 1.625 -0.5 C 1.113281 -0.914062 0.859375 -1.566406 0.859375 -2.453125 L 0.859375 -6.625 L 1.09375 -6.625 L 1.09375 -2.453125 C 1.09375 -1.691406 1.3125 -1.113281 1.75 -0.71875 C 2.195312 -0.320312 2.796875 -0.125 3.546875 -0.125 C 4.296875 -0.125 4.890625 -0.320312 5.328125 -0.71875 C 5.773438 -1.113281 6 -1.691406 6 -2.453125 L 6 -6.625 L 6.234375 -6.625 L 6.234375 -2.453125 C 6.234375 -1.566406 5.976562 -0.914062 5.46875 -0.5 C 4.957031 -0.09375 4.316406 0.109375 3.546875 0.109375 Z M 3.546875 0.109375 "/></g></g></g><g fill="rgb(0%, 0%, 0%)" fill-opacity="1"><g transform="translate(211.93015, 84.523813)"><g><path d="M 2.984375 0.109375 C 1.941406 0.109375 1.125 -0.296875 0.53125 -1.109375 L 0.71875 -1.265625 C 0.988281 -0.878906 1.304688 -0.59375 1.671875 -0.40625 C 2.035156 -0.21875 2.46875 -0.125 2.96875 -0.125 C 3.582031 -0.125 4.070312 -0.257812 4.4375 -0.53125 C 4.800781 -0.8125 4.984375 -1.195312 4.984375 -1.6875 C 4.984375 -2 4.898438 -2.253906 4.734375 -2.453125 C 4.566406 -2.648438 4.359375 -2.804688 4.109375 -2.921875 C 3.859375 -3.035156 3.503906 -3.164062 3.046875 -3.3125 L 2.515625 -3.46875 C 2.085938 -3.601562 1.742188 -3.726562 1.484375 -3.84375 C 1.222656 -3.957031 1.007812 -4.113281 0.84375 -4.3125 C 0.6875 -4.519531 0.609375 -4.785156 0.609375 -5.109375 C 0.609375 -5.617188 0.800781 -6.015625 1.1875 -6.296875 C 1.582031 -6.585938 2.097656 -6.734375 2.734375 -6.734375 C 3.617188 -6.734375 4.363281 -6.445312 4.96875 -5.875 L 4.8125 -5.703125 C 4.25 -6.234375 3.554688 -6.5 2.734375 -6.5 C 2.160156 -6.5 1.703125 -6.375 1.359375 -6.125 C 1.015625 -5.882812 0.84375 -5.550781 0.84375 -5.125 C 0.84375 -4.851562 0.914062 -4.628906 1.0625 -4.453125 C 1.207031 -4.273438 1.394531 -4.132812 1.625 -4.03125 C 1.851562 -3.925781 2.171875 -3.816406 2.578125 -3.703125 L 3.140625 -3.53125 C 3.617188 -3.382812 4 -3.242188 4.28125 -3.109375 C 4.5625 -2.984375 4.785156 -2.804688 4.953125 -2.578125 C 5.128906 -2.347656 5.21875 -2.054688 5.21875 -1.703125 C 5.21875 -1.117188 5.007812 -0.671875 4.59375 -0.359375 C 4.175781 -0.046875 3.640625 0.109375 2.984375 0.109375 Z M 2.984375 0.109375 "/></g></g></g><g fill="rgb(0%, 0%, 0%)" fill-opacity="1"><g transform="translate(217.675863, 84.523813)"><g><path d="M 1.171875 -0.6875 C 1.285156 -0.6875 1.390625 -0.632812 1.484375 -0.53125 C 1.578125 -0.4375 1.625 -0.3125 1.625 -0.15625 C 1.625 0.113281 1.535156 0.382812 1.359375 0.65625 C 1.179688 0.925781 0.976562 1.128906 0.75 1.265625 L 0.65625 1.140625 C 0.851562 1.003906 1.015625 0.835938 1.140625 0.640625 C 1.265625 0.441406 1.34375 0.242188 1.375 0.046875 C 1.289062 0.0859375 1.222656 0.109375 1.171875 0.109375 C 1.054688 0.109375 0.957031 0.0703125 0.875 0 C 0.800781 -0.0820312 0.765625 -0.175781 0.765625 -0.28125 C 0.765625 -0.394531 0.800781 -0.488281 0.875 -0.5625 C 0.957031 -0.644531 1.054688 -0.6875 1.171875 -0.6875 Z M 1.171875 -0.6875 "/></g></g></g><g fill="rgb(0%, 0%, 0%)" fill-opacity="1"><g transform="translate(219.966197, 84.523813)"><g/></g></g><g fill="rgb(0%, 0%, 0%)" fill-opacity="1"><g transform="translate(223.011154, 84.523813)"><g><path d="M 2.734375 -9.953125 C 2.265625 -9.953125 1.910156 -9.804688 1.671875 -9.515625 C 1.429688 -9.222656 1.3125 -8.769531 1.3125 -8.15625 L 1.3125 -6.625 L 3.5 -6.625 L 3.5 -6.40625 L 1.3125 -6.40625 L 1.3125 0 L 1.078125 0 L 1.078125 -6.40625 L 0.265625 -6.40625 L 0.28125 -6.625 L 1.078125 -6.625 L 1.078125 -8.15625 C 1.078125 -9.5 1.632812 -10.171875 2.75 -10.171875 C 3.15625 -10.171875 3.5625 -10.070312 3.96875 -9.875 L 3.953125 -9.640625 C 3.492188 -9.847656 3.085938 -9.953125 2.734375 -9.953125 Z M 2.734375 -9.953125 "/></g></g></g><g fill="rgb(0%, 0%, 0%)" fill-opacity="1"><g transform="translate(226.651873, 84.523813)"><g><path d="M 3.640625 -6.734375 C 3.816406 -6.734375 4.015625 -6.71875 4.234375 -6.6875 L 4.21875 -6.46875 C 4.03125 -6.488281 3.84375 -6.5 3.65625 -6.5 C 3.164062 -6.5 2.734375 -6.359375 2.359375 -6.078125 C 1.984375 -5.796875 1.691406 -5.398438 1.484375 -4.890625 C 1.273438 -4.378906 1.171875 -3.785156 1.171875 -3.109375 L 1.171875 0 L 0.921875 0 L 0.921875 -6.625 L 1.140625 -6.625 L 1.171875 -4.5625 C 1.359375 -5.257812 1.675781 -5.796875 2.125 -6.171875 C 2.582031 -6.546875 3.085938 -6.734375 3.640625 -6.734375 Z M 3.640625 -6.734375 "/></g></g></g><g fill="rgb(0%, 0%, 0%)" fill-opacity="1"><g transform="translate(231.206077, 84.523813)"><g><path d="M 3.828125 0.109375 C 3.222656 0.109375 2.675781 -0.03125 2.1875 -0.3125 C 1.707031 -0.59375 1.328125 -0.992188 1.046875 -1.515625 C 0.773438 -2.035156 0.640625 -2.632812 0.640625 -3.3125 C 0.640625 -3.988281 0.773438 -4.585938 1.046875 -5.109375 C 1.328125 -5.628906 1.707031 -6.03125 2.1875 -6.3125 C 2.675781 -6.59375 3.222656 -6.734375 3.828125 -6.734375 C 4.429688 -6.734375 4.972656 -6.59375 5.453125 -6.3125 C 5.941406 -6.03125 6.320312 -5.628906 6.59375 -5.109375 C 6.875 -4.585938 7.015625 -3.988281 7.015625 -3.3125 C 7.015625 -2.632812 6.875 -2.035156 6.59375 -1.515625 C 6.320312 -0.992188 5.941406 -0.59375 5.453125 -0.3125 C 4.972656 -0.03125 4.429688 0.109375 3.828125 0.109375 Z M 3.828125 -0.125 C 4.378906 -0.125 4.878906 -0.253906 5.328125 -0.515625 C 5.785156 -0.773438 6.140625 -1.144531 6.390625 -1.625 C 6.648438 -2.113281 6.78125 -2.675781 6.78125 -3.3125 C 6.78125 -3.945312 6.648438 -4.503906 6.390625 -4.984375 C 6.140625 -5.472656 5.785156 -5.847656 5.328125 -6.109375 C 4.878906 -6.367188 4.378906 -6.5 3.828125 -6.5 C 3.273438 -6.5 2.769531 -6.367188 2.3125 -6.109375 C 1.863281 -5.847656 1.507812 -5.472656 1.25 -4.984375 C 1 -4.503906 0.875 -3.945312 0.875 -3.3125 C 0.875 -2.675781 1 -2.113281 1.25 -1.625 C 1.507812 -1.144531 1.863281 -0.773438 2.3125 -0.515625 C 2.769531 -0.253906 3.273438 -0.125 3.828125 -0.125 Z M 3.828125 -0.125 "/></g></g></g><g fill="rgb(0%, 0%, 0%)" fill-opacity="1"><g transform="translate(238.858193, 84.523813)"><g><path d="M 8.328125 -6.734375 C 9.023438 -6.734375 9.601562 -6.503906 10.0625 -6.046875 C 10.53125 -5.597656 10.765625 -4.929688 10.765625 -4.046875 L 10.765625 0 L 10.53125 0 L 10.53125 -4.046875 C 10.53125 -4.796875 10.332031 -5.390625 9.9375 -5.828125 C 9.550781 -6.273438 9.019531 -6.5 8.34375 -6.5 C 7.613281 -6.5 7.035156 -6.210938 6.609375 -5.640625 C 6.179688 -5.078125 5.96875 -4.320312 5.96875 -3.375 L 5.96875 0 L 5.71875 0 L 5.71875 -4.046875 C 5.71875 -4.796875 5.523438 -5.390625 5.140625 -5.828125 C 4.753906 -6.273438 4.21875 -6.5 3.53125 -6.5 C 2.8125 -6.5 2.238281 -6.210938 1.8125 -5.640625 C 1.382812 -5.078125 1.171875 -4.320312 1.171875 -3.375 L 1.171875 0 L 0.921875 0 L 0.921875 -6.625 L 1.140625 -6.625 L 1.171875 -4.78125 C 1.347656 -5.414062 1.644531 -5.898438 2.0625 -6.234375 C 2.488281 -6.566406 2.976562 -6.734375 3.53125 -6.734375 C 4.132812 -6.734375 4.65625 -6.554688 5.09375 -6.203125 C 5.539062 -5.859375 5.816406 -5.335938 5.921875 -4.640625 C 6.085938 -5.316406 6.382812 -5.832031 6.8125 -6.1875 C 7.238281 -6.550781 7.742188 -6.734375 8.328125 -6.734375 Z M 8.328125 -6.734375 "/></g></g></g><g fill="rgb(0%, 0%, 0%)" fill-opacity="1"><g transform="translate(250.481991, 84.523813)"><g/></g></g><g fill="rgb(0%, 0%, 0%)" fill-opacity="1"><g transform="translate(253.526948, 84.523813)"><g><path d="M 9.8125 -6.625 L 10.0625 -6.625 L 7.71875 0 L 7.40625 0 L 5.171875 -6.265625 L 2.921875 0 L 2.625 0 L 0.265625 -6.625 L 0.515625 -6.625 L 2.765625 -0.21875 L 5.046875 -6.625 L 5.28125 -6.625 L 7.546875 -0.234375 Z M 9.8125 -6.625 "/></g></g></g><g fill="rgb(0%, 0%, 0%)" fill-opacity="1"><g transform="translate(263.853329, 84.523813)"><g><path d="M 3.828125 0.109375 C 3.222656 0.109375 2.675781 -0.03125 2.1875 -0.3125 C 1.707031 -0.59375 1.328125 -0.992188 1.046875 -1.515625 C 0.773438 -2.035156 0.640625 -2.632812 0.640625 -3.3125 C 0.640625 -3.988281 0.773438 -4.585938 1.046875 -5.109375 C 1.328125 -5.628906 1.707031 -6.03125 2.1875 -6.3125 C 2.675781 -6.59375 3.222656 -6.734375 3.828125 -6.734375 C 4.429688 -6.734375 4.972656 -6.59375 5.453125 -6.3125 C 5.941406 -6.03125 6.320312 -5.628906 6.59375 -5.109375 C 6.875 -4.585938 7.015625 -3.988281 7.015625 -3.3125 C 7.015625 -2.632812 6.875 -2.035156 6.59375 -1.515625 C 6.320312 -0.992188 5.941406 -0.59375 5.453125 -0.3125 C 4.972656 -0.03125 4.429688 0.109375 3.828125 0.109375 Z M 3.828125 -0.125 C 4.378906 -0.125 4.878906 -0.253906 5.328125 -0.515625 C 5.785156 -0.773438 6.140625 -1.144531 6.390625 -1.625 C 6.648438 -2.113281 6.78125 -2.675781 6.78125 -3.3125 C 6.78125 -3.945312 6.648438 -4.503906 6.390625 -4.984375 C 6.140625 -5.472656 5.785156 -5.847656 5.328125 -6.109375 C 4.878906 -6.367188 4.378906 -6.5 3.828125 -6.5 C 3.273438 -6.5 2.769531 -6.367188 2.3125 -6.109375 C 1.863281 -5.847656 1.507812 -5.472656 1.25 -4.984375 C 1 -4.503906 0.875 -3.945312 0.875 -3.3125 C 0.875 -2.675781 1 -2.113281 1.25 -1.625 C 1.507812 -1.144531 1.863281 -0.773438 2.3125 -0.515625 C 2.769531 -0.253906 3.273438 -0.125 3.828125 -0.125 Z M 3.828125 -0.125 "/></g></g></g><g fill="rgb(0%, 0%, 0%)" fill-opacity="1"><g transform="translate(271.505445, 84.523813)"><g><path d="M 3.640625 -6.734375 C 3.816406 -6.734375 4.015625 -6.71875 4.234375 -6.6875 L 4.21875 -6.46875 C 4.03125 -6.488281 3.84375 -6.5 3.65625 -6.5 C 3.164062 -6.5 2.734375 -6.359375 2.359375 -6.078125 C 1.984375 -5.796875 1.691406 -5.398438 1.484375 -4.890625 C 1.273438 -4.378906 1.171875 -3.785156 1.171875 -3.109375 L 1.171875 0 L 0.921875 0 L 0.921875 -6.625 L 1.140625 -6.625 L 1.171875 -4.5625 C 1.359375 -5.257812 1.675781 -5.796875 2.125 -6.171875 C 2.582031 -6.546875 3.085938 -6.734375 3.640625 -6.734375 Z M 3.640625 -6.734375 "/></g></g></g><g fill="rgb(0%, 0%, 0%)" fill-opacity="1"><g transform="translate(276.059649, 84.523813)"><g><path d="M 5.765625 0 L 3.078125 -4.125 L 1.171875 -2.09375 L 1.171875 0 L 0.921875 0 L 0.921875 -10.0625 L 1.171875 -10.0625 L 1.171875 -2.421875 L 5.140625 -6.625 L 5.453125 -6.625 L 3.25 -4.296875 L 6.03125 0 Z M 5.765625 0 "/></g></g></g><g fill="rgb(0%, 0%, 0%)" fill-opacity="1"><g transform="translate(282.149564, 84.523813)"><g/></g></g><g fill="rgb(0%, 0%, 0%)" fill-opacity="1"><g transform="translate(285.194521, 84.523813)"><g><path d="M 3.703125 -0.046875 C 3.398438 0.0546875 3.070312 0.109375 2.71875 0.109375 C 1.625 0.109375 1.078125 -0.5625 1.078125 -1.90625 L 1.078125 -6.40625 L 0.265625 -6.40625 L 0.28125 -6.625 L 1.078125 -6.625 L 1.078125 -8.484375 L 1.3125 -8.484375 L 1.3125 -6.625 L 3.5 -6.625 L 3.5 -6.40625 L 1.3125 -6.40625 L 1.3125 -1.921875 C 1.3125 -1.304688 1.425781 -0.851562 1.65625 -0.5625 C 1.894531 -0.269531 2.25 -0.125 2.71875 -0.125 C 3.0625 -0.125 3.390625 -0.171875 3.703125 -0.265625 Z M 3.703125 -0.046875 "/></g></g></g><g fill="rgb(0%, 0%, 0%)" fill-opacity="1"><g transform="translate(289.298602, 84.523813)"><g><path d="M 3.828125 0.109375 C 3.222656 0.109375 2.675781 -0.03125 2.1875 -0.3125 C 1.707031 -0.59375 1.328125 -0.992188 1.046875 -1.515625 C 0.773438 -2.035156 0.640625 -2.632812 0.640625 -3.3125 C 0.640625 -3.988281 0.773438 -4.585938 1.046875 -5.109375 C 1.328125 -5.628906 1.707031 -6.03125 2.1875 -6.3125 C 2.675781 -6.59375 3.222656 -6.734375 3.828125 -6.734375 C 4.429688 -6.734375 4.972656 -6.59375 5.453125 -6.3125 C 5.941406 -6.03125 6.320312 -5.628906 6.59375 -5.109375 C 6.875 -4.585938 7.015625 -3.988281 7.015625 -3.3125 C 7.015625 -2.632812 6.875 -2.035156 6.59375 -1.515625 C 6.320312 -0.992188 5.941406 -0.59375 5.453125 -0.3125 C 4.972656 -0.03125 4.429688 0.109375 3.828125 0.109375 Z M 3.828125 -0.125 C 4.378906 -0.125 4.878906 -0.253906 5.328125 -0.515625 C 5.785156 -0.773438 6.140625 -1.144531 6.390625 -1.625 C 6.648438 -2.113281 6.78125 -2.675781 6.78125 -3.3125 C 6.78125 -3.945312 6.648438 -4.503906 6.390625 -4.984375 C 6.140625 -5.472656 5.785156 -5.847656 5.328125 -6.109375 C 4.878906 -6.367188 4.378906 -6.5 3.828125 -6.5 C 3.273438 -6.5 2.769531 -6.367188 2.3125 -6.109375 C 1.863281 -5.847656 1.507812 -5.472656 1.25 -4.984375 C 1 -4.503906 0.875 -3.945312 0.875 -3.3125 C 0.875 -2.675781 1 -2.113281 1.25 -1.625 C 1.507812 -1.144531 1.863281 -0.773438 2.3125 -0.515625 C 2.769531 -0.253906 3.273438 -0.125 3.828125 -0.125 Z M 3.828125 -0.125 "/></g></g></g><g fill="rgb(0%, 0%, 0%)" fill-opacity="1"><g transform="translate(296.950718, 84.523813)"><g/></g></g><g fill="rgb(0%, 0%, 0%)" fill-opacity="1"><g transform="translate(299.995675, 84.523813)"><g><path d="M 4.0625 -6.734375 C 4.675781 -6.734375 5.226562 -6.59375 5.71875 -6.3125 C 6.207031 -6.03125 6.585938 -5.628906 6.859375 -5.109375 C 7.140625 -4.585938 7.28125 -3.988281 7.28125 -3.3125 C 7.28125 -2.632812 7.140625 -2.035156 6.859375 -1.515625 C 6.585938 -0.992188 6.207031 -0.59375 5.71875 -0.3125 C 5.226562 -0.03125 4.675781 0.109375 4.0625 0.109375 C 3.375 0.109375 2.769531 -0.0820312 2.25 -0.46875 C 1.726562 -0.851562 1.367188 -1.382812 1.171875 -2.0625 L 1.171875 2.546875 L 0.921875 2.546875 L 0.921875 -6.625 L 1.140625 -6.625 L 1.171875 -4.546875 C 1.359375 -5.222656 1.710938 -5.753906 2.234375 -6.140625 C 2.765625 -6.535156 3.375 -6.734375 4.0625 -6.734375 Z M 4.0625 -0.125 C 4.632812 -0.125 5.144531 -0.253906 5.59375 -0.515625 C 6.050781 -0.773438 6.40625 -1.144531 6.65625 -1.625 C 6.914062 -2.101562 7.046875 -2.664062 7.046875 -3.3125 C 7.046875 -3.957031 6.914062 -4.519531 6.65625 -5 C 6.40625 -5.476562 6.050781 -5.847656 5.59375 -6.109375 C 5.144531 -6.367188 4.632812 -6.5 4.0625 -6.5 C 3.519531 -6.5 3.03125 -6.367188 2.59375 -6.109375 C 2.15625 -5.847656 1.804688 -5.472656 1.546875 -4.984375 C 1.296875 -4.503906 1.171875 -3.945312 1.171875 -3.3125 C 1.171875 -2.675781 1.296875 -2.113281 1.546875 -1.625 C 1.804688 -1.144531 2.15625 -0.773438 2.59375 -0.515625 C 3.03125 -0.253906 3.519531 -0.125 4.0625 -0.125 Z M 4.0625 -0.125 "/></g></g></g><g fill="rgb(0%, 0%, 0%)" fill-opacity="1"><g transform="translate(307.912575, 84.523813)"><g><path d="M 2.546875 0.109375 C 2.160156 0.109375 1.851562 0.0664062 1.625 -0.015625 C 1.394531 -0.0976562 1.21875 -0.265625 1.09375 -0.515625 C 0.976562 -0.773438 0.921875 -1.148438 0.921875 -1.640625 L 0.921875 -10.0625 L 1.171875 -10.0625 L 1.171875 -1.65625 C 1.171875 -1.21875 1.21875 -0.882812 1.3125 -0.65625 C 1.40625 -0.4375 1.546875 -0.289062 1.734375 -0.21875 C 1.929688 -0.15625 2.195312 -0.125 2.53125 -0.125 L 2.578125 -0.125 L 2.578125 0.109375 Z M 2.546875 0.109375 "/></g></g></g><g fill="rgb(0%, 0%, 0%)" fill-opacity="1"><g transform="translate(310.89134, 84.523813)"><g><path d="M 7 -6.625 L 7 0 L 6.78125 0 L 6.75 -2.078125 C 6.5625 -1.398438 6.203125 -0.863281 5.671875 -0.46875 C 5.148438 -0.0820312 4.546875 0.109375 3.859375 0.109375 C 3.242188 0.109375 2.691406 -0.03125 2.203125 -0.3125 C 1.710938 -0.59375 1.328125 -0.992188 1.046875 -1.515625 C 0.773438 -2.035156 0.640625 -2.632812 0.640625 -3.3125 C 0.640625 -3.988281 0.773438 -4.585938 1.046875 -5.109375 C 1.328125 -5.628906 1.710938 -6.03125 2.203125 -6.3125 C 2.691406 -6.59375 3.242188 -6.734375 3.859375 -6.734375 C 4.554688 -6.734375 5.164062 -6.539062 5.6875 -6.15625 C 6.207031 -5.769531 6.5625 -5.238281 6.75 -4.5625 L 6.75 -6.625 Z M 3.859375 -0.125 C 4.398438 -0.125 4.890625 -0.253906 5.328125 -0.515625 C 5.765625 -0.773438 6.109375 -1.144531 6.359375 -1.625 C 6.617188 -2.113281 6.75 -2.675781 6.75 -3.3125 C 6.75 -3.945312 6.617188 -4.503906 6.359375 -4.984375 C 6.109375 -5.472656 5.765625 -5.847656 5.328125 -6.109375 C 4.890625 -6.367188 4.398438 -6.5 3.859375 -6.5 C 3.285156 -6.5 2.769531 -6.367188 2.3125 -6.109375 C 1.863281 -5.847656 1.507812 -5.476562 1.25 -5 C 1 -4.519531 0.875 -3.957031 0.875 -3.3125 C 0.875 -2.664062 1 -2.101562 1.25 -1.625 C 1.507812 -1.144531 1.863281 -0.773438 2.3125 -0.515625 C 2.769531 -0.253906 3.285156 -0.125 3.859375 -0.125 Z M 3.859375 -0.125 "/></g></g></g><g fill="rgb(0%, 0%, 0%)" fill-opacity="1"><g transform="translate(318.80824, 84.523813)"><g><path d="M 5.78125 -6.625 L 6.03125 -6.625 L 2.09375 2.546875 L 1.859375 2.546875 L 2.921875 0.046875 L 0.0625 -6.625 L 0.3125 -6.625 L 3.046875 -0.25 Z M 5.78125 -6.625 "/></g></g></g><g fill="rgb(0%, 0%, 0%)" fill-opacity="1"><g transform="translate(324.898155, 84.523813)"><g><path d="M 1.078125 0.109375 C 0.960938 0.109375 0.863281 0.0703125 0.78125 0 C 0.695312 -0.0820312 0.65625 -0.179688 0.65625 -0.296875 C 0.65625 -0.398438 0.695312 -0.488281 0.78125 -0.5625 C 0.863281 -0.644531 0.960938 -0.6875 1.078125 -0.6875 C 1.179688 -0.6875 1.269531 -0.644531 1.34375 -0.5625 C 1.425781 -0.488281 1.46875 -0.398438 1.46875 -0.296875 C 1.46875 -0.179688 1.425781 -0.0820312 1.34375 0 C 1.269531 0.0703125 1.179688 0.109375 1.078125 0.109375 Z M 1.078125 0.109375 "/></g></g></g></svg>