<svg xmlns="http://www.w3.org/2000/svg" xmlns:xlink="http://www.w3.org/1999/xlink" width="150" zoomAndPan="magnify" viewBox="0 0 112.5 112.499997" height="150" preserveAspectRatio="xMidYMid meet" version="1.0"><defs><clipPath id="id1"><path d="M 11.25 11.25 L 102 11.25 L 102 101.25 L 11.25 101.25 Z M 11.25 11.25 " clip-rule="nonzero"/></clipPath><clipPath id="id2"><path d="M 52 11.25 L 102 11.25 L 102 78 L 52 78 Z M 52 11.25 " clip-rule="nonzero"/></clipPath></defs><g clip-path="url(#id1)"><path fill="rgb(50.19989%, 79.998779%, 15.689087%)" d="M 95.550781 11.964844 C 93.433594 12.363281 91.328125 12.878906 89.265625 13.542969 C 87.1875 14.167969 85.167969 14.960938 83.164062 15.816406 C 81.171875 16.6875 79.210938 17.640625 77.300781 18.699219 C 69.660156 22.925781 62.816406 28.527344 56.917969 34.882812 C 51.011719 41.242188 46.023438 48.355469 41.90625 55.875 C 40.890625 57.765625 39.90625 59.667969 38.996094 61.609375 C 38.070312 63.542969 37.226562 65.511719 36.417969 67.5 L 36.410156 67.53125 C 34.496094 66.0625 32.542969 64.707031 30.535156 63.441406 L 28.269531 62.03125 L 25.949219 60.710938 C 24.417969 59.828125 22.816406 59.042969 21.234375 58.25 C 18.019531 56.738281 14.757812 55.324219 11.277344 54.308594 C 13.226562 57.347656 15.269531 60.164062 17.261719 62.984375 L 23.21875 71.222656 L 26.066406 75.269531 C 27 76.605469 27.90625 77.9375 28.761719 79.261719 C 29.203125 79.914062 29.613281 80.582031 30.027344 81.234375 C 30.417969 81.890625 30.828125 82.53125 31.191406 83.179688 C 31.566406 83.824219 31.917969 84.460938 32.25 85.085938 C 32.582031 85.714844 32.863281 86.332031 33.152344 86.925781 L 40.097656 101.25 L 48.125 85.164062 L 49.296875 82.8125 L 50.582031 80.300781 C 51.449219 78.617188 52.339844 76.941406 53.242188 75.269531 C 54.140625 73.597656 55.070312 71.941406 55.988281 70.28125 C 56.929688 68.625 57.855469 66.972656 58.820312 65.34375 C 62.636719 58.796875 66.671875 52.429688 70.972656 46.257812 C 75.277344 40.085938 79.859375 34.109375 84.9375 28.324219 C 86.214844 26.894531 87.484375 25.414062 88.839844 24.015625 L 90.871094 21.878906 L 92.96875 19.761719 C 94.378906 18.347656 95.84375 16.953125 97.34375 15.542969 L 101.976562 11.25 C 99.816406 11.324219 97.664062 11.554688 95.550781 11.964844 " fill-opacity="1" fill-rule="nonzero"/></g><path fill="rgb(65.098572%, 48.239136%, 27.839661%)" d="M 52.222656 77.179688 L 52.222656 77.171875 C 52.507812 76.632812 52.800781 76.089844 53.089844 75.550781 C 52.800781 76.09375 52.507812 76.632812 52.222656 77.179688 " fill-opacity="1" fill-rule="nonzero"/><g clip-path="url(#id2)"><path fill="rgb(25.099182%, 37.649536%, 23.139954%)" d="M 52.222656 77.171875 L 52.222656 40.347656 C 53.71875 38.476562 55.28125 36.648438 56.917969 34.882812 C 62.816406 28.527344 69.660156 22.925781 77.300781 18.699219 C 79.210938 17.640625 81.171875 16.6875 83.164062 15.816406 C 85.167969 14.960938 87.1875 14.167969 89.265625 13.542969 C 91.328125 12.878906 93.433594 12.363281 95.550781 11.964844 C 97.664062 11.554688 99.816406 11.324219 101.976562 11.25 L 97.34375 15.542969 C 95.84375 16.953125 94.378906 18.347656 92.96875 19.761719 L 90.871094 21.878906 L 88.839844 24.015625 C 87.484375 25.414062 86.214844 26.894531 84.9375 28.324219 C 79.859375 34.109375 75.277344 40.085938 70.972656 46.257812 C 66.671875 52.429688 62.636719 58.796875 58.820312 65.34375 C 57.855469 66.972656 56.929688 68.625 55.988281 70.28125 C 55.070312 71.941406 54.140625 73.597656 53.242188 75.269531 C 53.191406 75.363281 53.140625 75.457031 53.089844 75.550781 C 52.800781 76.089844 52.507812 76.632812 52.222656 77.171875 " fill-opacity="1" fill-rule="nonzero"/></g></svg>